<?xml version="1.0" encoding="UTF-8"?>
<!-- Generator: Adobe Illustrator 13.0.0, SVG Export Plug-In  -->
<!DOCTYPE svg PUBLIC "-//W3C//DTD SVG 1.1//EN" "http://www.w3.org/Graphics/SVG/1.1/DTD/svg11.dtd" [
	<!ENTITY ns_flows "http://ns.adobe.com/Flows/1.0/">
]>
<svg version="1.1" xmlns="http://www.w3.org/2000/svg" xmlns:xlink="http://www.w3.org/1999/xlink" xmlns:a="http://ns.adobe.com/AdobeSVGViewerExtensions/3.0/" x="0px" y="0px" width="2356px" height="1752px" viewBox="-104.885 96.007 2356 1752" enable-background="new -104.885 96.007 2356 1752" xml:space="preserve">
<defs>
</defs>
<polygon fill="#E6E7E8" stroke="#000000" stroke-width="3" points="193.551,356.725 193.551,522.6 1.5,522.6 1.5,286.85 123.676,286.85"/>
<polyline fill="#E6E7E8" stroke="#000000" stroke-width="3" points="193.551,356.725 123.675,356.725 123.675,286.85"/>
<line fill="#E6E7E8" stroke="#000000" stroke-width="2" x1="29.101" y1="490.399" x2="165.95" y2="490.399"/>
<line fill="#E6E7E8" stroke="#000000" stroke-width="2" x1="29.101" y1="455.899" x2="165.95" y2="455.899"/>
<line fill="#E6E7E8" stroke="#000000" stroke-width="2" x1="29.101" y1="421.399" x2="165.95" y2="421.399"/>
<line fill="#E6E7E8" stroke="#000000" stroke-width="2" x1="29.101" y1="386.899" x2="165.95" y2="386.899"/>
<line fill="#E6E7E8" stroke="#000000" stroke-width="2" x1="29.101" y1="352.399" x2="97.334" y2="352.399"/>
<line fill="#E6E7E8" stroke="#000000" stroke-width="2" x1="29.101" y1="317.899" x2="97.334" y2="317.899"/>
<g>
	<path d="M60.025,551.657h9.878c8.599,0.2,13.118,4.919,13.118,14.277c0,9.359-4.519,14.078-13.118,14.278h-9.878V551.657z    M62.745,577.893h5.799c8.199,0.04,11.758-3.439,11.758-11.958s-3.56-11.998-11.758-11.958h-5.799V577.893z"/>
	<path d="M86.705,565.895c0.24-4.839,3.639-6.919,8.358-6.919c3.64,0,7.599,1.12,7.599,6.639v10.958c0,0.959,0.479,1.52,1.479,1.52   c0.28,0,0.6-0.08,0.8-0.16v2.12c-0.56,0.12-0.96,0.16-1.64,0.16c-2.56,0-2.959-1.44-2.959-3.6h-0.08c-1.76,2.68-3.56,4.2-7.519,4.2   c-3.799,0-6.919-1.88-6.919-6.039c0-5.799,5.639-5.999,11.078-6.639c2.08-0.24,3.239-0.52,3.239-2.799   c0-3.399-2.439-4.239-5.399-4.239c-3.12,0-5.439,1.439-5.519,4.799H86.705z M100.143,568.934h-0.08c-0.32,0.6-1.44,0.8-2.12,0.92   c-4.279,0.76-9.599,0.72-9.599,4.759c0,2.52,2.24,4.08,4.599,4.08c3.839,0,7.239-2.44,7.199-6.479V568.934z"/>
	<path d="M111.704,559.576h4.199v2.12h-4.199v13.918c0,1.64,0.24,2.6,2.04,2.719c0.72,0,1.44-0.04,2.16-0.12v2.16   c-0.76,0-1.479,0.08-2.24,0.08c-3.359,0-4.519-1.12-4.479-4.639v-14.118h-3.6v-2.12h3.6v-6.199h2.52V559.576z"/>
	<path d="M119.305,565.895c0.24-4.839,3.639-6.919,8.358-6.919c3.64,0,7.599,1.12,7.599,6.639v10.958c0,0.959,0.479,1.52,1.479,1.52   c0.28,0,0.6-0.08,0.8-0.16v2.12c-0.56,0.12-0.96,0.16-1.64,0.16c-2.56,0-2.959-1.44-2.959-3.6h-0.08c-1.76,2.68-3.56,4.2-7.519,4.2   c-3.799,0-6.919-1.88-6.919-6.039c0-5.799,5.639-5.999,11.078-6.639c2.08-0.24,3.239-0.52,3.239-2.799   c0-3.399-2.439-4.239-5.399-4.239c-3.12,0-5.439,1.439-5.519,4.799H119.305z M132.742,568.934h-0.08c-0.32,0.6-1.44,0.8-2.12,0.92   c-4.279,0.76-9.599,0.72-9.599,4.759c0,2.52,2.24,4.08,4.599,4.08c3.839,0,7.239-2.44,7.199-6.479V568.934z"/>
</g>
<polygon fill="#E6E7E8" stroke="#000000" stroke-width="3" points="1404.64,827.807 1404.64,993.683 1212.59,993.683 1212.59,757.932 1334.76,757.932"/>
<polyline fill="#E6E7E8" stroke="#000000" stroke-width="3" points="1404.64,827.807 1334.76,827.807 1334.76,757.932"/>
<line fill="#E6E7E8" stroke="#000000" stroke-width="2" x1="1240.187" y1="961.482" x2="1377.036" y2="961.482"/>
<line fill="#E6E7E8" stroke="#000000" stroke-width="2" x1="1240.187" y1="926.982" x2="1377.036" y2="926.982"/>
<line fill="#E6E7E8" stroke="#000000" stroke-width="2" x1="1240.187" y1="892.482" x2="1377.036" y2="892.482"/>
<line fill="#E6E7E8" stroke="#000000" stroke-width="2" x1="1240.187" y1="857.982" x2="1377.036" y2="857.982"/>
<line fill="#E6E7E8" stroke="#000000" stroke-width="2" x1="1240.187" y1="823.482" x2="1308.42" y2="823.482"/>
<line fill="#E6E7E8" stroke="#000000" stroke-width="2" x1="1240.187" y1="788.982" x2="1308.42" y2="788.982"/>
<g>
	<path d="M1271.111,1022.739h9.879c8.598,0.2,13.117,4.92,13.117,14.277c0,9.359-4.52,14.078-13.117,14.278h-9.879V1022.739z    M1273.831,1048.976h5.799c8.198,0.039,11.759-3.439,11.759-11.959c0-8.518-3.561-11.997-11.759-11.957h-5.799V1048.976z"/>
	<path d="M1297.791,1036.978c0.24-4.84,3.64-6.919,8.359-6.919c3.639,0,7.599,1.12,7.599,6.639v10.958c0,0.96,0.479,1.52,1.479,1.52   c0.279,0,0.6-0.08,0.8-0.16v2.12c-0.56,0.12-0.96,0.16-1.64,0.16c-2.56,0-2.959-1.44-2.959-3.6h-0.08   c-1.76,2.68-3.561,4.2-7.52,4.2c-3.799,0-6.918-1.881-6.918-6.039c0-5.8,5.639-6,11.078-6.64c2.079-0.239,3.238-0.52,3.238-2.8   c0-3.398-2.439-4.238-5.398-4.238c-3.119,0-5.439,1.439-5.52,4.799H1297.791z M1311.229,1040.017h-0.079   c-0.32,0.6-1.44,0.801-2.12,0.92c-4.279,0.76-9.598,0.721-9.598,4.76c0,2.52,2.239,4.079,4.599,4.079   c3.839,0,7.239-2.44,7.198-6.479V1040.017z"/>
	<path d="M1322.791,1030.658h4.199v2.12h-4.199v13.918c0,1.639,0.239,2.6,2.039,2.719c0.721,0,1.439-0.039,2.16-0.119v2.159   c-0.76,0-1.48,0.079-2.24,0.079c-3.359,0-4.52-1.119-4.479-4.639v-14.117h-3.6v-2.12h3.6v-6.198h2.52V1030.658z"/>
	<path d="M1330.391,1036.978c0.24-4.84,3.64-6.919,8.359-6.919c3.639,0,7.599,1.12,7.599,6.639v10.958c0,0.96,0.479,1.52,1.479,1.52   c0.279,0,0.6-0.08,0.8-0.16v2.12c-0.56,0.12-0.96,0.16-1.64,0.16c-2.56,0-2.959-1.44-2.959-3.6h-0.08   c-1.76,2.68-3.561,4.2-7.52,4.2c-3.799,0-6.918-1.881-6.918-6.039c0-5.8,5.639-6,11.078-6.64c2.079-0.239,3.238-0.52,3.238-2.8   c0-3.398-2.439-4.238-5.398-4.238c-3.119,0-5.439,1.439-5.52,4.799H1330.391z M1343.828,1040.017h-0.079   c-0.32,0.6-1.44,0.801-2.12,0.92c-4.279,0.76-9.598,0.721-9.598,4.76c0,2.52,2.239,4.079,4.599,4.079   c3.839,0,7.239-2.44,7.198-6.479V1040.017z"/>
</g>
<g>
	<path d="M657.871,475.16h2.72v12.398h16.957V475.16h2.72v28.555h-2.72v-13.838h-16.957v13.838h-2.72V475.16z"/>
	<path d="M685.311,489.398c0.24-4.839,3.639-6.919,8.358-6.919c3.64,0,7.599,1.12,7.599,6.639v10.958c0,0.959,0.479,1.52,1.479,1.52   c0.28,0,0.6-0.08,0.8-0.16v2.12c-0.56,0.12-0.96,0.16-1.64,0.16c-2.56,0-2.959-1.44-2.959-3.6h-0.08c-1.76,2.68-3.56,4.2-7.519,4.2   c-3.799,0-6.919-1.88-6.919-6.039c0-5.799,5.639-5.999,11.078-6.639c2.08-0.24,3.239-0.52,3.239-2.799   c0-3.399-2.439-4.239-5.399-4.239c-3.12,0-5.439,1.439-5.519,4.799H685.311z M698.749,492.437h-0.08c-0.32,0.6-1.44,0.8-2.12,0.92   c-4.279,0.76-9.599,0.72-9.599,4.759c0,2.52,2.24,4.08,4.599,4.08c3.839,0,7.239-2.44,7.199-6.479V492.437z"/>
	<path d="M718.669,489.118c-0.12-3.119-2.52-4.519-5.399-4.519c-2.24,0-4.879,0.88-4.879,3.559c0,2.24,2.56,3.04,4.279,3.479   l3.36,0.76c2.879,0.439,5.879,2.12,5.879,5.719c0,4.479-4.439,6.199-8.279,6.199c-4.799,0-8.079-2.24-8.479-7.279h2.52   c0.2,3.399,2.72,5.159,6.079,5.159c2.359,0,5.639-1.04,5.639-3.919c0-2.4-2.24-3.2-4.52-3.759l-3.239-0.72   c-3.279-0.88-5.759-2-5.759-5.519c0-4.199,4.12-5.799,7.759-5.799c4.12,0,7.399,2.16,7.559,6.639H718.669z"/>
	<path d="M725.51,475.16h2.52v11.478h0.08c0.92-2.479,3.68-4.159,6.599-4.159c5.799,0,7.559,3.04,7.559,7.958v13.278h-2.52v-12.878   c0-3.559-1.16-6.239-5.239-6.239c-3.999,0-6.399,3.04-6.479,7.079v12.038h-2.52V475.16z"/>
</g>
<g>
	<path d="M612.451,1032.289c-0.12,5.879,4.12,7.679,9.318,7.679c3,0,7.559-1.64,7.559-5.799c0-3.24-3.24-4.52-5.879-5.159   l-6.359-1.56c-3.359-0.84-6.439-2.439-6.439-6.879c0-2.8,1.8-8.039,9.838-8.039c5.639,0,10.599,3.039,10.559,8.879h-2.72   c-0.16-4.359-3.759-6.559-7.799-6.559c-3.719,0-7.159,1.439-7.159,5.679c0,2.679,2,3.8,4.319,4.358l6.959,1.721   c4.039,1.08,7.398,2.84,7.398,7.519c0,1.96-0.8,8.159-10.918,8.159c-6.759,0-11.718-3.04-11.398-9.999H612.451z"/>
	<path d="M635.931,1013.132h2.52v4.039h-2.52V1013.132z M635.931,1021.051h2.52v20.637h-2.52V1021.051z"/>
	<path d="M660.728,1040.008c-0.04,6.159-2.399,9.919-9.158,9.919c-4.119,0-8.199-1.84-8.559-6.24h2.52   c0.56,3.04,3.24,4.12,6.039,4.12c4.639,0,6.639-2.76,6.639-7.799v-2.8h-0.08c-1.16,2.52-3.6,4.24-6.559,4.24   c-6.599,0-9.318-4.72-9.318-10.6c0-5.678,3.359-10.397,9.318-10.397c3,0,5.559,1.88,6.559,4.159h0.08v-3.56h2.52V1040.008z    M658.208,1031.13c0-4.04-1.879-8.559-6.639-8.559c-4.799,0-6.799,4.279-6.799,8.559c0,4.158,2.16,8.198,6.799,8.198   C655.929,1039.328,658.208,1035.329,658.208,1031.13z"/>
	<path d="M665.491,1021.051h2.52v3.56h0.08c0.92-2.479,3.68-4.159,6.599-4.159c5.799,0,7.559,3.04,7.559,7.958v13.278h-2.52v-12.878   c0-3.559-1.16-6.238-5.239-6.238c-3.999,0-6.399,3.039-6.479,7.078v12.038h-2.52V1021.051z"/>
	<path d="M686.771,1027.37c0.24-4.84,3.639-6.919,8.358-6.919c3.64,0,7.599,1.12,7.599,6.639v10.958c0,0.96,0.479,1.52,1.479,1.52   c0.28,0,0.6-0.08,0.8-0.16v2.12c-0.56,0.12-0.96,0.16-1.64,0.16c-2.56,0-2.959-1.44-2.959-3.6h-0.08   c-1.76,2.68-3.559,4.2-7.519,4.2c-3.799,0-6.919-1.881-6.919-6.039c0-5.8,5.639-6,11.078-6.64c2.08-0.239,3.239-0.52,3.239-2.8   c0-3.398-2.439-4.238-5.399-4.238c-3.12,0-5.439,1.439-5.519,4.799H686.771z M700.208,1030.409h-0.08   c-0.32,0.6-1.44,0.801-2.12,0.92c-4.279,0.76-9.599,0.721-9.599,4.76c0,2.52,2.24,4.079,4.599,4.079   c3.839,0,7.239-2.44,7.199-6.479V1030.409z"/>
	<path d="M711.77,1021.051h4.199v2.12h-4.199v13.918c0,1.639,0.24,2.6,2.04,2.719c0.72,0,1.44-0.039,2.16-0.119v2.159   c-0.76,0-1.479,0.079-2.24,0.079c-3.359,0-4.519-1.119-4.479-4.639v-14.117h-3.6v-2.12h3.6v-6.198h2.52V1021.051z"/>
	<path d="M736.327,1041.688h-2.319v-3.72h-0.08c-1.32,2.76-4.04,4.32-7.119,4.32c-5.199,0-7.239-3.04-7.239-7.84v-13.397h2.52   v13.438c0.12,3.719,1.52,5.679,5.519,5.679c4.319,0,6.199-4.079,6.199-8.278v-10.839h2.52V1041.688z"/>
	<path d="M741.089,1021.051h2.32v4.839h0.08c1.28-3.318,4.079-5.279,7.798-5.119v2.52c-4.559-0.239-7.679,3.12-7.679,7.399v10.998   h-2.52V1021.051z"/>
	<path d="M754.449,1032.05c0.04,3.679,1.959,8.118,6.799,8.118c3.679,0,5.679-2.159,6.479-5.279h2.52   c-1.08,4.679-3.799,7.399-8.999,7.399c-6.559,0-9.318-5.04-9.318-10.919c0-5.438,2.759-10.918,9.318-10.918   c6.639,0,9.278,5.799,9.079,11.599H754.449z M767.807,1029.93c-0.12-3.8-2.48-7.358-6.559-7.358c-4.119,0-6.399,3.599-6.799,7.358   H767.807z"/>
</g>
<polygon fill="#FFFFFF" stroke="#000000" stroke-width="3" points="499.008,409.724 402.099,312.815 402.099,354.857 247.221,354.857 247.221,464.592 402.099,464.592 402.099,506.633"/>
<polygon fill="#FFFFFF" stroke="#000000" stroke-width="3" points="699.811,852.201 885.58,739.033 820.222,739.033 820.222,558.422 579.399,558.422 579.399,739.033 514.041,739.033"/>
<polygon fill="#FFFFFF" stroke="#000000" stroke-width="3" points="533.466,1433.71 663.235,1354.65 617.579,1354.65 617.579,1228.49 449.353,1228.49 449.353,1354.65 403.696,1354.65"/>
<polygon fill="#FFFFFF" stroke="#000000" stroke-width="3" points="1308.61,1287.92 1429.97,1213.99 1387.27,1213.99 1387.27,1096 1229.95,1096 1229.95,1213.99 1187.25,1213.99"/>
<g>
	<path d="M300.918,374.784h2.38v10.851h14.842v-10.851h2.38v24.993h-2.38v-12.111h-14.842v12.111h-2.38V374.784z"/>
	<path d="M324.928,387.245c0.21-4.235,3.185-6.056,7.315-6.056c3.186,0,6.65,0.98,6.65,5.811v9.591c0,0.84,0.42,1.331,1.295,1.331   c0.245,0,0.525-0.07,0.7-0.14v1.855c-0.49,0.105-0.84,0.14-1.435,0.14c-2.24,0-2.591-1.26-2.591-3.15h-0.069   c-1.541,2.345-3.116,3.675-6.581,3.675c-3.325,0-6.056-1.645-6.056-5.286c0-5.075,4.936-5.25,9.696-5.811   c1.82-0.21,2.835-0.455,2.835-2.45c0-2.975-2.135-3.71-4.726-3.71c-2.73,0-4.761,1.26-4.83,4.201H324.928z M336.688,389.905h-0.07   c-0.279,0.525-1.26,0.7-1.854,0.805c-3.746,0.665-8.401,0.63-8.401,4.166c0,2.205,1.96,3.57,4.025,3.57   c3.36,0,6.336-2.135,6.301-5.671V389.905z"/>
	<path d="M354.118,387c-0.104-2.73-2.205-3.956-4.726-3.956c-1.96,0-4.27,0.77-4.27,3.116c0,1.96,2.24,2.66,3.745,3.045l2.94,0.665   c2.52,0.385,5.146,1.855,5.146,5.006c0,3.92-3.886,5.425-7.246,5.425c-4.2,0-7.07-1.96-7.421-6.371h2.205   c0.176,2.976,2.381,4.516,5.321,4.516c2.064,0,4.936-0.91,4.936-3.431c0-2.1-1.961-2.8-3.956-3.29l-2.835-0.63   c-2.87-0.771-5.041-1.75-5.041-4.831c0-3.676,3.605-5.076,6.791-5.076c3.605,0,6.476,1.89,6.616,5.811H354.118z"/>
	<path d="M360.103,374.784h2.205v10.046h0.07c0.805-2.17,3.22-3.64,5.775-3.64c5.075,0,6.615,2.66,6.615,6.966v11.621h-2.205   v-11.271c0-3.116-1.015-5.461-4.585-5.461c-3.501,0-5.601,2.661-5.671,6.196v10.536h-2.205V374.784z"/>
	<path d="M286.727,425.57h-3.57v16.207h-2.205V425.57h-3.081v-1.855h3.081v-1.645c-0.035-3.115,0.84-5.286,4.375-5.286   c0.63,0,1.155,0.035,1.855,0.14v1.89c-0.595-0.105-1.085-0.175-1.61-0.175c-2.45,0-2.38,1.54-2.415,3.5v1.575h3.57V425.57z"/>
	<path d="M303.457,441.776h-2.03v-3.255h-0.07c-1.155,2.416-3.535,3.78-6.23,3.78c-4.551,0-6.335-2.66-6.335-6.86v-11.727h2.205   v11.761c0.105,3.255,1.331,4.971,4.831,4.971c3.78,0,5.426-3.57,5.426-7.246v-9.486h2.205V441.776z"/>
	<path d="M307.585,423.714h2.205v3.115h0.07c0.805-2.17,3.22-3.64,5.775-3.64c5.075,0,6.615,2.66,6.615,6.966v11.621h-2.205v-11.271   c0-3.116-1.015-5.461-4.585-5.461c-3.501,0-5.601,2.661-5.671,6.196v10.536h-2.205V423.714z"/>
	<path d="M339.156,429.385c-0.596-2.695-2.24-4.341-5.11-4.341c-4.236,0-6.336,3.851-6.336,7.701c0,3.85,2.1,7.701,6.336,7.701   c2.729,0,4.97-2.135,5.25-5.146h2.205c-0.595,4.34-3.43,7-7.455,7c-5.531,0-8.541-4.375-8.541-9.556   c0-5.181,3.01-9.556,8.541-9.556c3.85,0,6.825,2.065,7.315,6.196H339.156z"/>
	<path d="M348.08,423.714h3.676v1.855h-3.676v12.181c0,1.435,0.21,2.275,1.785,2.38c0.63,0,1.26-0.035,1.891-0.105v1.89   c-0.665,0-1.296,0.07-1.961,0.07c-2.94,0-3.955-0.98-3.92-4.061V425.57h-3.15v-1.855h3.15v-5.425h2.205V423.714z"/>
	<path d="M354.974,416.784h2.206v3.536h-2.206V416.784z M354.974,423.714h2.206v18.062h-2.206V423.714z"/>
	<path d="M377.585,432.746c0,5.18-3.01,9.556-8.54,9.556c-5.531,0-8.541-4.375-8.541-9.556c0-5.181,3.01-9.556,8.541-9.556   C374.575,423.189,377.585,427.565,377.585,432.746z M362.709,432.746c0,3.85,2.1,7.701,6.336,7.701   c4.235,0,6.335-3.851,6.335-7.701c0-3.851-2.1-7.701-6.335-7.701C364.809,425.044,362.709,428.895,362.709,432.746z"/>
	<path d="M380.839,423.714h2.205v3.115h0.07c0.805-2.17,3.22-3.64,5.775-3.64c5.075,0,6.615,2.66,6.615,6.966v11.621H393.3v-11.271   c0-3.116-1.015-5.461-4.585-5.461c-3.501,0-5.601,2.661-5.671,6.196v10.536h-2.205V423.714z"/>
</g>
<rect x="546.736" y="369.73" fill="#E6E7E8" stroke="#000000" stroke-width="3" width="306.148" height="79.988"/>
<g>
	<path d="M570.25,401.628c4.399-0.16,7.119-0.24,7.879-5.399h2.04v27.995h-2.52v-20.796h-7.399V401.628z"/>
	<path d="M609.488,410.386c0,6.559-1.601,14.438-9.759,14.438s-9.759-7.879-9.759-14.398c0-6.559,1.601-14.438,9.759-14.438   S609.488,403.868,609.488,410.386z M592.49,410.386c0,4.879,0.84,12.318,7.239,12.318c6.398,0,7.238-7.439,7.238-12.318   c0-4.839-0.84-12.278-7.238-12.278C593.33,398.108,592.49,405.547,592.49,410.386z"/>
	<path d="M614.73,401.628c4.399-0.16,7.119-0.24,7.879-5.399h2.04v27.995h-2.52v-20.796h-7.399V401.628z"/>
	<path d="M636.97,401.628c4.399-0.16,7.119-0.24,7.879-5.399h2.04v27.995h-2.52v-20.796h-7.399V401.628z"/>
	<path d="M676.208,410.386c0,6.559-1.601,14.438-9.759,14.438s-9.759-7.879-9.759-14.398c0-6.559,1.601-14.438,9.759-14.438   S676.208,403.868,676.208,410.386z M659.21,410.386c0,4.879,0.84,12.318,7.239,12.318c6.398,0,7.238-7.439,7.238-12.318   c0-4.839-0.84-12.278-7.238-12.278C660.05,398.108,659.21,405.547,659.21,410.386z"/>
	<path d="M698.448,410.386c0,6.559-1.601,14.438-9.759,14.438s-9.759-7.879-9.759-14.398c0-6.559,1.601-14.438,9.759-14.438   S698.448,403.868,698.448,410.386z M681.45,410.386c0,4.879,0.84,12.318,7.239,12.318c6.398,0,7.238-7.439,7.238-12.318   c0-4.839-0.84-12.278-7.238-12.278C682.29,398.108,681.45,405.547,681.45,410.386z"/>
	<path d="M703.689,401.628c4.399-0.16,7.119-0.24,7.879-5.399h2.04v27.995h-2.52v-20.796h-7.399V401.628z"/>
	<path d="M725.93,401.628c4.399-0.16,7.119-0.24,7.879-5.399h2.04v27.995h-2.52v-20.796h-7.399V401.628z"/>
	<path d="M765.168,410.386c0,6.559-1.601,14.438-9.759,14.438s-9.759-7.879-9.759-14.398c0-6.559,1.601-14.438,9.759-14.438   S765.168,403.868,765.168,410.386z M748.17,410.386c0,4.879,0.84,12.318,7.239,12.318c6.398,0,7.238-7.439,7.238-12.318   c0-4.839-0.84-12.278-7.238-12.278C749.01,398.108,748.17,405.547,748.17,410.386z"/>
	<path d="M770.41,401.628c4.399-0.16,7.119-0.24,7.879-5.399h2.04v27.995h-2.52v-20.796h-7.399V401.628z"/>
	<path d="M809.648,410.386c0,6.559-1.601,14.438-9.759,14.438s-9.759-7.879-9.759-14.398c0-6.559,1.601-14.438,9.759-14.438   S809.648,403.868,809.648,410.386z M792.65,410.386c0,4.879,0.84,12.318,7.239,12.318c6.398,0,7.238-7.439,7.238-12.318   c0-4.839-0.84-12.278-7.238-12.278C793.49,398.108,792.65,405.547,792.65,410.386z"/>
	<path d="M814.89,401.628c4.399-0.16,7.119-0.24,7.879-5.399h2.04v27.995h-2.52v-20.796h-7.399V401.628z"/>
</g>
<g>
	<path d="M1266.672,1443.719h2.72v12.397h16.957v-12.397h2.72v28.556h-2.72v-13.838h-16.957v13.838h-2.72V1443.719z"/>
	<path d="M1294.111,1457.956c0.24-4.839,3.64-6.918,8.359-6.918c3.639,0,7.599,1.119,7.599,6.639v10.958   c0,0.96,0.479,1.52,1.479,1.52c0.279,0,0.6-0.08,0.8-0.16v2.12c-0.56,0.119-0.96,0.16-1.64,0.16c-2.56,0-2.959-1.44-2.959-3.6   h-0.08c-1.76,2.68-3.561,4.199-7.52,4.199c-3.799,0-6.918-1.88-6.918-6.039c0-5.799,5.639-5.999,11.078-6.639   c2.079-0.24,3.238-0.52,3.238-2.8c0-3.399-2.439-4.239-5.398-4.239c-3.119,0-5.439,1.439-5.52,4.799H1294.111z M1307.549,1460.995   h-0.079c-0.32,0.601-1.44,0.801-2.12,0.92c-4.279,0.761-9.598,0.721-9.598,4.76c0,2.52,2.239,4.08,4.599,4.08   c3.839,0,7.239-2.44,7.198-6.479V1460.995z"/>
	<path d="M1327.47,1457.677c-0.12-3.119-2.52-4.52-5.399-4.52c-2.239,0-4.879,0.88-4.879,3.559c0,2.24,2.561,3.04,4.279,3.48   l3.359,0.76c2.88,0.439,5.879,2.119,5.879,5.719c0,4.479-4.439,6.199-8.278,6.199c-4.8,0-8.079-2.24-8.479-7.279h2.52   c0.2,3.4,2.72,5.16,6.079,5.16c2.359,0,5.639-1.041,5.639-3.92c0-2.4-2.239-3.199-4.52-3.76l-3.238-0.72   c-3.279-0.88-5.76-1.999-5.76-5.519c0-4.199,4.119-5.799,7.759-5.799c4.12,0,7.399,2.159,7.56,6.639H1327.47z"/>
	<path d="M1334.311,1443.719h2.521v11.478h0.079c0.92-2.479,3.68-4.158,6.6-4.158c5.799,0,7.559,3.039,7.559,7.958v13.278h-2.52   v-12.879c0-3.559-1.16-6.238-5.239-6.238c-3.999,0-6.399,3.039-6.479,7.078v12.039h-2.521V1443.719z"/>
</g>
<rect x="1155.537" y="1338.288" fill="#E6E7E8" stroke="#000000" stroke-width="3" width="306.148" height="79.988"/>
<g>
	<path d="M1179.051,1370.187c4.4-0.16,7.119-0.24,7.879-5.398h2.041v27.994h-2.52v-20.796h-7.4V1370.187z"/>
	<path d="M1218.289,1378.944c0,6.56-1.6,14.438-9.758,14.438s-9.76-7.879-9.76-14.397c0-6.559,1.602-14.438,9.76-14.438   S1218.289,1372.427,1218.289,1378.944z M1201.291,1378.944c0,4.88,0.84,12.318,7.24,12.318c6.398,0,7.238-7.438,7.238-12.318   c0-4.838-0.84-12.277-7.238-12.277C1202.131,1366.667,1201.291,1374.106,1201.291,1378.944z"/>
	<path d="M1223.531,1370.187c4.4-0.16,7.119-0.24,7.879-5.398h2.041v27.994h-2.52v-20.796h-7.4V1370.187z"/>
	<path d="M1245.771,1370.187c4.398-0.16,7.119-0.24,7.879-5.398h2.039v27.994h-2.52v-20.796h-7.398V1370.187z"/>
	<path d="M1285.01,1378.944c0,6.56-1.602,14.438-9.76,14.438s-9.758-7.879-9.758-14.397c0-6.559,1.6-14.438,9.758-14.438   S1285.01,1372.427,1285.01,1378.944z M1268.012,1378.944c0,4.88,0.84,12.318,7.238,12.318s7.238-7.438,7.238-12.318   c0-4.838-0.84-12.277-7.238-12.277S1268.012,1374.106,1268.012,1378.944z"/>
	<path d="M1307.25,1378.944c0,6.56-1.602,14.438-9.76,14.438s-9.758-7.879-9.758-14.397c0-6.559,1.6-14.438,9.758-14.438   S1307.25,1372.427,1307.25,1378.944z M1290.252,1378.944c0,4.88,0.84,12.318,7.238,12.318s7.238-7.438,7.238-12.318   c0-4.838-0.84-12.277-7.238-12.277S1290.252,1374.106,1290.252,1378.944z"/>
	<path d="M1312.49,1370.187c4.4-0.16,7.119-0.24,7.879-5.398h2.041v27.994h-2.52v-20.796h-7.4V1370.187z"/>
	<path d="M1334.73,1370.187c4.4-0.16,7.119-0.24,7.879-5.398h2.041v27.994h-2.52v-20.796h-7.4V1370.187z"/>
	<path d="M1373.969,1378.944c0,6.56-1.6,14.438-9.758,14.438s-9.76-7.879-9.76-14.397c0-6.559,1.602-14.438,9.76-14.438   S1373.969,1372.427,1373.969,1378.944z M1356.971,1378.944c0,4.88,0.84,12.318,7.24,12.318c6.398,0,7.238-7.438,7.238-12.318   c0-4.838-0.84-12.277-7.238-12.277C1357.811,1366.667,1356.971,1374.106,1356.971,1378.944z"/>
	<path d="M1379.211,1370.187c4.4-0.16,7.119-0.24,7.879-5.398h2.041v27.994h-2.52v-20.796h-7.4V1370.187z"/>
	<path d="M1418.449,1378.944c0,6.56-1.6,14.438-9.758,14.438s-9.76-7.879-9.76-14.397c0-6.559,1.602-14.438,9.76-14.438   S1418.449,1372.427,1418.449,1378.944z M1401.451,1378.944c0,4.88,0.84,12.318,7.24,12.318c6.398,0,7.238-7.438,7.238-12.318   c0-4.838-0.84-12.277-7.238-12.277C1402.291,1366.667,1401.451,1374.106,1401.451,1378.944z"/>
	<path d="M1423.691,1370.187c4.398-0.16,7.119-0.24,7.879-5.398h2.039v27.994h-2.52v-20.796h-7.398V1370.187z"/>
</g>
<g>
	<path d="M1905.871,1443.719h2.72v12.397h16.957v-12.397h2.72v28.556h-2.72v-13.838h-16.957v13.838h-2.72V1443.719z"/>
	<path d="M1933.311,1457.956c0.24-4.839,3.64-6.918,8.359-6.918c3.639,0,7.599,1.119,7.599,6.639v10.958   c0,0.96,0.479,1.52,1.479,1.52c0.279,0,0.6-0.08,0.8-0.16v2.12c-0.56,0.119-0.96,0.16-1.64,0.16c-2.56,0-2.959-1.44-2.959-3.6   h-0.08c-1.76,2.68-3.561,4.199-7.52,4.199c-3.799,0-6.918-1.88-6.918-6.039c0-5.799,5.639-5.999,11.078-6.639   c2.079-0.24,3.238-0.52,3.238-2.8c0-3.399-2.439-4.239-5.398-4.239c-3.119,0-5.439,1.439-5.52,4.799H1933.311z M1946.748,1460.995   h-0.079c-0.32,0.601-1.44,0.801-2.12,0.92c-4.279,0.761-9.598,0.721-9.598,4.76c0,2.52,2.239,4.08,4.599,4.08   c3.839,0,7.239-2.44,7.198-6.479V1460.995z"/>
	<path d="M1966.669,1457.677c-0.12-3.119-2.52-4.52-5.399-4.52c-2.239,0-4.879,0.88-4.879,3.559c0,2.24,2.561,3.04,4.279,3.48   l3.359,0.76c2.88,0.439,5.879,2.119,5.879,5.719c0,4.479-4.439,6.199-8.278,6.199c-4.8,0-8.079-2.24-8.479-7.279h2.52   c0.2,3.4,2.72,5.16,6.079,5.16c2.359,0,5.639-1.041,5.639-3.92c0-2.4-2.239-3.199-4.52-3.76l-3.238-0.72   c-3.279-0.88-5.76-1.999-5.76-5.519c0-4.199,4.119-5.799,7.759-5.799c4.12,0,7.399,2.159,7.56,6.639H1966.669z"/>
	<path d="M1973.51,1443.719h2.521v11.478h0.079c0.92-2.479,3.68-4.158,6.6-4.158c5.799,0,7.559,3.039,7.559,7.958v13.278h-2.52   v-12.879c0-3.559-1.16-6.238-5.239-6.238c-3.999,0-6.399,3.039-6.479,7.078v12.039h-2.521V1443.719z"/>
</g>
<rect x="1794.736" y="1338.288" fill="#E6E7E8" stroke="#000000" stroke-width="3" width="306.148" height="79.988"/>
<g>
	<path d="M1818.25,1370.187c4.4-0.16,7.119-0.24,7.879-5.398h2.041v27.994h-2.52v-20.796h-7.4V1370.187z"/>
	<path d="M1857.488,1378.944c0,6.56-1.6,14.438-9.758,14.438s-9.76-7.879-9.76-14.397c0-6.559,1.602-14.438,9.76-14.438   S1857.488,1372.427,1857.488,1378.944z M1840.49,1378.944c0,4.88,0.84,12.318,7.24,12.318c6.398,0,7.238-7.438,7.238-12.318   c0-4.838-0.84-12.277-7.238-12.277C1841.33,1366.667,1840.49,1374.106,1840.49,1378.944z"/>
	<path d="M1862.73,1370.187c4.4-0.16,7.119-0.24,7.879-5.398h2.041v27.994h-2.52v-20.796h-7.4V1370.187z"/>
	<path d="M1884.971,1370.187c4.398-0.16,7.119-0.24,7.879-5.398h2.039v27.994h-2.52v-20.796h-7.398V1370.187z"/>
	<path d="M1924.209,1378.944c0,6.56-1.602,14.438-9.76,14.438s-9.758-7.879-9.758-14.397c0-6.559,1.6-14.438,9.758-14.438   S1924.209,1372.427,1924.209,1378.944z M1907.211,1378.944c0,4.88,0.84,12.318,7.238,12.318s7.238-7.438,7.238-12.318   c0-4.838-0.84-12.277-7.238-12.277S1907.211,1374.106,1907.211,1378.944z"/>
	<path d="M1946.449,1378.944c0,6.56-1.602,14.438-9.76,14.438s-9.758-7.879-9.758-14.397c0-6.559,1.6-14.438,9.758-14.438   S1946.449,1372.427,1946.449,1378.944z M1929.451,1378.944c0,4.88,0.84,12.318,7.238,12.318s7.238-7.438,7.238-12.318   c0-4.838-0.84-12.277-7.238-12.277S1929.451,1374.106,1929.451,1378.944z"/>
	<path d="M1951.689,1370.187c4.4-0.16,7.119-0.24,7.879-5.398h2.041v27.994h-2.52v-20.796h-7.4V1370.187z"/>
	<path d="M1973.93,1370.187c4.4-0.16,7.119-0.24,7.879-5.398h2.041v27.994h-2.52v-20.796h-7.4V1370.187z"/>
	<path d="M2013.168,1378.944c0,6.56-1.6,14.438-9.758,14.438s-9.76-7.879-9.76-14.397c0-6.559,1.602-14.438,9.76-14.438   S2013.168,1372.427,2013.168,1378.944z M1996.17,1378.944c0,4.88,0.84,12.318,7.24,12.318c6.398,0,7.238-7.438,7.238-12.318   c0-4.838-0.84-12.277-7.238-12.277C1997.01,1366.667,1996.17,1374.106,1996.17,1378.944z"/>
	<path d="M2018.41,1370.187c4.4-0.16,7.119-0.24,7.879-5.398h2.041v27.994h-2.52v-20.796h-7.4V1370.187z"/>
	<path d="M2057.648,1378.944c0,6.56-1.6,14.438-9.758,14.438s-9.76-7.879-9.76-14.397c0-6.559,1.602-14.438,9.76-14.438   S2057.648,1372.427,2057.648,1378.944z M2040.65,1378.944c0,4.88,0.84,12.318,7.24,12.318c6.398,0,7.238-7.438,7.238-12.318   c0-4.838-0.84-12.277-7.238-12.277C2041.49,1366.667,2040.65,1374.106,2040.65,1378.944z"/>
	<path d="M2062.891,1370.187c4.398-0.16,7.119-0.24,7.879-5.398h2.039v27.994h-2.52v-20.796h-7.398V1370.187z"/>
</g>
<rect x="533.103" y="902.699" fill="#E6E7E8" stroke="#000000" stroke-width="3" width="319.782" height="79.988"/>
<g>
	<path d="M570.25,934.597c4.399-0.16,7.119-0.24,7.879-5.399h2.04v27.995h-2.52v-20.796h-7.399V934.597z"/>
	<path d="M592.49,934.597c4.399-0.16,7.119-0.24,7.879-5.399h2.04v27.995h-2.52v-20.796h-7.399V934.597z"/>
	<path d="M614.73,934.597c4.399-0.16,7.119-0.24,7.879-5.399h2.04v27.995h-2.52v-20.796h-7.399V934.597z"/>
	<path d="M636.97,934.597c4.399-0.16,7.119-0.24,7.879-5.399h2.04v27.995h-2.52v-20.796h-7.399V934.597z"/>
	<path d="M676.208,943.355c0,6.559-1.601,14.438-9.759,14.438s-9.759-7.879-9.759-14.398c0-6.559,1.601-14.438,9.759-14.438   S676.208,936.837,676.208,943.355z M659.21,943.355c0,4.879,0.84,12.318,7.239,12.318c6.398,0,7.238-7.439,7.238-12.318   c0-4.839-0.84-12.278-7.238-12.278C660.05,931.078,659.21,938.517,659.21,943.355z"/>
	<path d="M681.45,934.597c4.399-0.16,7.119-0.24,7.879-5.399h2.04v27.995h-2.52v-20.796h-7.399V934.597z"/>
	<path d="M703.689,934.597c4.399-0.16,7.119-0.24,7.879-5.399h2.04v27.995h-2.52v-20.796h-7.399V934.597z"/>
	<path d="M742.928,943.355c0,6.559-1.601,14.438-9.759,14.438s-9.759-7.879-9.759-14.398c0-6.559,1.601-14.438,9.759-14.438   S742.928,936.837,742.928,943.355z M725.93,943.355c0,4.879,0.84,12.318,7.239,12.318c6.398,0,7.238-7.439,7.238-12.318   c0-4.839-0.84-12.278-7.238-12.278C726.77,931.078,725.93,938.517,725.93,943.355z"/>
	<path d="M748.17,934.597c4.399-0.16,7.119-0.24,7.879-5.399h2.04v27.995h-2.52v-20.796h-7.399V934.597z"/>
	<path d="M770.41,934.597c4.399-0.16,7.119-0.24,7.879-5.399h2.04v27.995h-2.52v-20.796h-7.399V934.597z"/>
	<path d="M792.65,934.597c4.399-0.16,7.119-0.24,7.879-5.399h2.04v27.995h-2.52v-20.796h-7.399V934.597z"/>
	<path d="M831.888,943.355c0,6.559-1.601,14.438-9.759,14.438s-9.759-7.879-9.759-14.398c0-6.559,1.601-14.438,9.759-14.438   S831.888,936.837,831.888,943.355z M814.89,943.355c0,4.879,0.84,12.318,7.239,12.318c6.398,0,7.238-7.439,7.238-12.318   c0-4.839-0.84-12.278-7.238-12.278C815.729,931.078,814.89,938.517,814.89,943.355z"/>
</g>
<g>
	<path d="M603.476,597.125h17.257v2.03h-14.877v9.031h13.932v2.03h-13.932v9.871h15.052v2.03h-17.432V597.125z"/>
	<path d="M623.775,604.055h2.205v3.115h0.07c0.805-2.17,3.22-3.64,5.775-3.64c5.075,0,6.615,2.66,6.615,6.966v11.621h-2.205v-11.271   c0-3.116-1.015-5.461-4.585-5.461c-3.501,0-5.601,2.661-5.671,6.196v10.536h-2.205V604.055z"/>
	<path d="M655.346,609.726c-0.596-2.695-2.24-4.341-5.11-4.341c-4.236,0-6.336,3.851-6.336,7.701c0,3.85,2.1,7.701,6.336,7.701   c2.729,0,4.97-2.135,5.25-5.146h2.205c-0.595,4.34-3.43,7-7.455,7c-5.531,0-8.541-4.375-8.541-9.556   c0-5.181,3.01-9.556,8.541-9.556c3.85,0,6.825,2.065,7.315,6.196H655.346z"/>
	<path d="M660.77,604.055h2.03v4.235h0.069c1.12-2.905,3.57-4.62,6.826-4.48v2.206c-3.99-0.21-6.721,2.73-6.721,6.476v9.626h-2.205   V604.055z"/>
	<path d="M669.764,604.055h2.345l5.951,15.402l5.565-15.402h2.205l-7.841,20.827c-1.26,3.045-1.995,3.92-4.761,3.92   c-0.875-0.035-1.33-0.035-1.68-0.175v-1.855c0.524,0.105,1.015,0.175,1.505,0.175c1.96,0,2.415-1.155,3.15-2.835l0.771-2.065   L669.764,604.055z"/>
	<path d="M687.999,604.055h2.03v3.431h0.069c1.016-2.451,3.535-3.956,6.44-3.956c5.496,0,8.121,4.445,8.121,9.556   c0,5.11-2.625,9.556-8.121,9.556c-2.694,0-5.32-1.365-6.266-3.955h-0.069v10.116h-2.205V604.055z M696.539,605.385   c-4.865,0-6.335,3.605-6.335,7.701c0,3.745,1.645,7.701,6.335,7.701c4.201,0,5.916-3.956,5.916-7.701   C702.455,609.341,700.74,605.385,696.539,605.385z"/>
	<path d="M711.589,604.055h3.676v1.855h-3.676v12.181c0,1.435,0.21,2.275,1.785,2.38c0.63,0,1.26-0.035,1.891-0.105v1.89   c-0.665,0-1.296,0.07-1.961,0.07c-2.94,0-3.955-0.98-3.92-4.061v-12.356h-3.15v-1.855h3.15v-5.425h2.205V604.055z"/>
	<path d="M728.144,597.125h2.205v10.046h0.07c0.805-2.17,3.22-3.64,5.775-3.64c5.075,0,6.615,2.66,6.615,6.966v11.621h-2.205   v-11.271c0-3.116-1.015-5.461-4.585-5.461c-3.501,0-5.601,2.661-5.671,6.196v10.536h-2.205V597.125z"/>
	<path d="M746.763,609.586c0.21-4.235,3.185-6.056,7.315-6.056c3.186,0,6.65,0.98,6.65,5.811v9.591c0,0.84,0.42,1.331,1.295,1.331   c0.245,0,0.525-0.07,0.7-0.14v1.855c-0.489,0.105-0.84,0.14-1.435,0.14c-2.24,0-2.591-1.26-2.591-3.15h-0.069   c-1.541,2.345-3.115,3.675-6.581,3.675c-3.325,0-6.056-1.645-6.056-5.286c0-5.075,4.936-5.25,9.696-5.811   c1.82-0.21,2.835-0.455,2.835-2.45c0-2.975-2.135-3.71-4.726-3.71c-2.73,0-4.761,1.26-4.83,4.201H746.763z M758.523,612.246h-0.07   c-0.279,0.525-1.26,0.7-1.854,0.805c-3.746,0.665-8.401,0.63-8.401,4.166c0,2.205,1.96,3.57,4.025,3.57   c3.36,0,6.336-2.135,6.301-5.671V612.246z"/>
	<path d="M775.953,609.341c-0.104-2.73-2.205-3.956-4.726-3.956c-1.96,0-4.271,0.77-4.271,3.116c0,1.96,2.24,2.66,3.746,3.045   l2.94,0.665c2.52,0.385,5.146,1.855,5.146,5.006c0,3.92-3.886,5.425-7.246,5.425c-4.2,0-7.07-1.96-7.421-6.371h2.205   c0.176,2.976,2.381,4.516,5.321,4.516c2.064,0,4.936-0.91,4.936-3.431c0-2.1-1.961-2.8-3.956-3.29l-2.835-0.63   c-2.87-0.771-5.041-1.75-5.041-4.831c0-3.676,3.605-5.076,6.791-5.076c3.605,0,6.476,1.89,6.615,5.811H775.953z"/>
	<path d="M781.938,597.125h2.205v10.046h0.07c0.805-2.17,3.22-3.64,5.775-3.64c5.075,0,6.615,2.66,6.615,6.966v11.621h-2.205   v-11.271c0-3.116-1.015-5.461-4.585-5.461c-3.501,0-5.601,2.661-5.671,6.196v10.536h-2.205V597.125z"/>
	<path d="M614.781,664.117h-2.03v-3.255h-0.069c-1.155,2.416-3.536,3.78-6.23,3.78c-4.551,0-6.336-2.66-6.336-6.86v-11.727h2.205   v11.761c0.104,3.255,1.33,4.971,4.83,4.971c3.781,0,5.426-3.57,5.426-7.246v-9.486h2.205V664.117z"/>
	<path d="M629.761,651.341c-0.104-2.73-2.205-3.956-4.726-3.956c-1.96,0-4.27,0.77-4.27,3.116c0,1.96,2.24,2.66,3.745,3.045   l2.94,0.665c2.52,0.385,5.146,1.855,5.146,5.006c0,3.92-3.886,5.425-7.246,5.425c-4.2,0-7.07-1.96-7.421-6.371h2.205   c0.176,2.976,2.381,4.516,5.321,4.516c2.064,0,4.936-0.91,4.936-3.431c0-2.1-1.961-2.8-3.956-3.29l-2.835-0.63   c-2.87-0.771-5.041-1.75-5.041-4.831c0-3.676,3.605-5.076,6.791-5.076c3.605,0,6.476,1.89,6.616,5.811H629.761z"/>
	<path d="M635.813,639.125h2.206v3.536h-2.206V639.125z M635.813,646.055h2.206v18.062h-2.206V646.055z"/>
	<path d="M642.22,646.055h2.205v3.115h0.07c0.805-2.17,3.22-3.64,5.775-3.64c5.075,0,6.615,2.66,6.615,6.966v11.621h-2.205v-11.271   c0-3.116-1.015-5.461-4.585-5.461c-3.501,0-5.601,2.661-5.671,6.196v10.536h-2.205V646.055z"/>
	<path d="M676.311,662.647c-0.035,5.391-2.101,8.681-8.017,8.681c-3.605,0-7.176-1.61-7.49-5.461h2.205   c0.49,2.661,2.835,3.605,5.285,3.605c4.061,0,5.811-2.415,5.811-6.826v-2.45h-0.069c-1.016,2.205-3.15,3.71-5.741,3.71   c-5.775,0-8.155-4.13-8.155-9.276c0-4.971,2.94-9.101,8.155-9.101c2.626,0,4.866,1.645,5.741,3.64h0.069v-3.115h2.206V662.647z    M674.104,654.876c0-3.535-1.645-7.491-5.811-7.491c-4.2,0-5.95,3.746-5.95,7.491c0,3.641,1.89,7.176,5.95,7.176   C672.109,662.052,674.104,658.552,674.104,654.876z"/>
	<path d="M701.055,651.341c-0.104-2.73-2.205-3.956-4.726-3.956c-1.96,0-4.271,0.77-4.271,3.116c0,1.96,2.24,2.66,3.746,3.045   l2.94,0.665c2.52,0.385,5.146,1.855,5.146,5.006c0,3.92-3.886,5.425-7.246,5.425c-4.2,0-7.07-1.96-7.421-6.371h2.205   c0.176,2.976,2.381,4.516,5.321,4.516c2.064,0,4.936-0.91,4.936-3.431c0-2.1-1.961-2.8-3.956-3.29l-2.835-0.63   c-2.87-0.771-5.041-1.75-5.041-4.831c0-3.676,3.605-5.076,6.791-5.076c3.605,0,6.476,1.89,6.615,5.811H701.055z"/>
	<path d="M707.107,639.125h2.206v3.536h-2.206V639.125z M707.107,646.055h2.206v18.062h-2.206V646.055z"/>
	<path d="M728.811,662.647c-0.035,5.391-2.101,8.681-8.017,8.681c-3.605,0-7.176-1.61-7.49-5.461h2.205   c0.49,2.661,2.835,3.605,5.285,3.605c4.061,0,5.811-2.415,5.811-6.826v-2.45h-0.069c-1.016,2.205-3.15,3.71-5.741,3.71   c-5.775,0-8.155-4.13-8.155-9.276c0-4.971,2.94-9.101,8.155-9.101c2.626,0,4.866,1.645,5.741,3.64h0.069v-3.115h2.206V662.647z    M726.604,654.876c0-3.535-1.645-7.491-5.811-7.491c-4.2,0-5.95,3.746-5.95,7.491c0,3.641,1.89,7.176,5.95,7.176   C724.609,662.052,726.604,658.552,726.604,654.876z"/>
	<path d="M732.974,646.055h2.205v3.115h0.07c0.805-2.17,3.22-3.64,5.775-3.64c5.075,0,6.615,2.66,6.615,6.966v11.621h-2.205v-11.271   c0-3.116-1.015-5.461-4.585-5.461c-3.501,0-5.601,2.661-5.671,6.196v10.536h-2.205V646.055z"/>
	<path d="M753.098,655.681c0.035,3.221,1.715,7.106,5.95,7.106c3.221,0,4.971-1.89,5.671-4.621h2.205   c-0.945,4.096-3.325,6.476-7.876,6.476c-5.74,0-8.155-4.41-8.155-9.556c0-4.761,2.415-9.556,8.155-9.556   c5.811,0,8.121,5.076,7.946,10.151H753.098z M764.789,653.826c-0.105-3.325-2.171-6.441-5.741-6.441   c-3.605,0-5.601,3.15-5.95,6.441H764.789z"/>
	<path d="M769.968,646.055h2.03v4.235h0.069c1.12-2.905,3.57-4.62,6.826-4.48v2.206c-3.99-0.21-6.721,2.73-6.721,6.476v9.626h-2.205   V646.055z"/>
	<path d="M785.297,639.125v3.746c-0.034,2.03-0.979,4.165-3.115,4.76v-1.505c1.19-0.42,1.716-2.135,1.646-3.291h-1.47v-3.71H785.297   z"/>
	<path d="M797.653,651.341c-0.104-2.73-2.205-3.956-4.726-3.956c-1.96,0-4.27,0.77-4.27,3.116c0,1.96,2.24,2.66,3.745,3.045   l2.94,0.665c2.52,0.385,5.146,1.855,5.146,5.006c0,3.92-3.886,5.425-7.246,5.425c-4.2,0-7.07-1.96-7.421-6.371h2.205   c0.176,2.976,2.381,4.516,5.321,4.516c2.064,0,4.936-0.91,4.936-3.431c0-2.1-1.961-2.8-3.956-3.29l-2.835-0.63   c-2.87-0.771-5.041-1.75-5.041-4.831c0-3.676,3.605-5.076,6.791-5.076c3.605,0,6.476,1.89,6.616,5.811H797.653z"/>
	<path d="M620.869,688.055h2.03v3.431h0.069c1.016-2.451,3.535-3.956,6.441-3.956c5.495,0,8.12,4.445,8.12,9.556   c0,5.11-2.625,9.556-8.12,9.556c-2.695,0-5.321-1.365-6.267-3.955h-0.069v10.116h-2.205V688.055z M629.41,689.385   c-4.866,0-6.336,3.605-6.336,7.701c0,3.745,1.645,7.701,6.336,7.701c4.2,0,5.915-3.956,5.915-7.701   C635.325,693.341,633.61,689.385,629.41,689.385z"/>
	<path d="M640.959,688.055h2.03v4.235h0.069c1.12-2.905,3.57-4.62,6.826-4.48v2.206c-3.99-0.21-6.721,2.73-6.721,6.476v9.626h-2.205   V688.055z"/>
	<path d="M652.018,681.125h2.206v3.536h-2.206V681.125z M652.018,688.055h2.206v18.062h-2.206V688.055z"/>
	<path d="M656.428,688.055h2.45l5.67,15.857h0.07l5.601-15.857h2.275l-6.756,18.062h-2.345L656.428,688.055z"/>
	<path d="M674.453,693.586c0.21-4.235,3.185-6.056,7.315-6.056c3.186,0,6.65,0.98,6.65,5.811v9.591c0,0.84,0.42,1.331,1.295,1.331   c0.245,0,0.525-0.07,0.7-0.14v1.855c-0.49,0.105-0.84,0.14-1.435,0.14c-2.24,0-2.591-1.26-2.591-3.15h-0.069   c-1.541,2.345-3.116,3.675-6.581,3.675c-3.325,0-6.056-1.645-6.056-5.286c0-5.075,4.936-5.25,9.696-5.811   c1.82-0.21,2.835-0.455,2.835-2.45c0-2.975-2.135-3.71-4.726-3.71c-2.73,0-4.761,1.26-4.83,4.201H674.453z M686.214,696.246h-0.07   c-0.279,0.525-1.26,0.7-1.854,0.805c-3.746,0.665-8.401,0.63-8.401,4.166c0,2.205,1.96,3.57,4.025,3.57   c3.36,0,6.336-2.135,6.301-5.671V696.246z"/>
	<path d="M696.328,688.055h3.676v1.855h-3.676v12.181c0,1.435,0.21,2.275,1.785,2.38c0.63,0,1.26-0.035,1.891-0.105v1.89   c-0.665,0-1.296,0.07-1.961,0.07c-2.94,0-3.955-0.98-3.92-4.061v-12.356h-3.15v-1.855h3.15v-5.425h2.205V688.055z"/>
	<path d="M704.482,697.681c0.035,3.221,1.715,7.106,5.95,7.106c3.221,0,4.971-1.89,5.671-4.621h2.205   c-0.945,4.096-3.325,6.476-7.876,6.476c-5.74,0-8.155-4.41-8.155-9.556c0-4.761,2.415-9.556,8.155-9.556   c5.811,0,8.121,5.076,7.946,10.151H704.482z M716.174,695.826c-0.105-3.325-2.171-6.441-5.741-6.441   c-3.605,0-5.601,3.15-5.95,6.441H716.174z"/>
	<path d="M731.083,681.125h2.205v15.682l10.011-8.751h2.94l-7.701,6.686l8.227,11.376h-2.766l-7.141-9.836l-3.57,2.975v6.861h-2.205   V681.125z"/>
	<path d="M749.878,697.681c0.035,3.221,1.715,7.106,5.95,7.106c3.221,0,4.971-1.89,5.671-4.621h2.205   c-0.945,4.096-3.325,6.476-7.876,6.476c-5.74,0-8.155-4.41-8.155-9.556c0-4.761,2.415-9.556,8.155-9.556   c5.811,0,8.121,5.076,7.946,10.151H749.878z M761.569,695.826c-0.105-3.325-2.171-6.441-5.741-6.441   c-3.605,0-5.601,3.15-5.95,6.441H761.569z"/>
	<path d="M764.717,688.055h2.345l5.951,15.402l5.565-15.402h2.205l-7.841,20.827c-1.26,3.045-1.995,3.92-4.761,3.92   c-0.875-0.035-1.33-0.035-1.68-0.175v-1.855c0.524,0.105,1.015,0.175,1.505,0.175c1.96,0,2.415-1.155,3.15-2.835l0.771-2.065   L764.717,688.055z"/>
</g>
<polyline fill="none" stroke="#000000" stroke-width="7" points="707.199,766.598 660.755,766.598 660.755,788.393"/>
<line fill="none" stroke="#000000" stroke-width="7" x1="677.498" y1="766.598" x2="677.498" y2="788.393"/>
<circle fill="none" stroke="#000000" stroke-width="7" cx="723.594" cy="766.597" r="16.394"/>
<polygon fill="#FFFFFF" stroke="#000000" stroke-width="3" points="1947.81,1272.06 2133.58,1158.89 2068.22,1158.89 2068.22,978.276 1827.4,978.276 1827.4,1158.89 1762.04,1158.89"/>
<g>
	<path d="M1891.339,1012.479h8.646c7.526,0.176,11.481,4.306,11.481,12.496c0,8.191-3.955,12.322-11.481,12.496h-8.646V1012.479z    M1893.719,1035.442h5.075c7.176,0.035,10.292-3.011,10.292-10.467c0-7.455-3.116-10.501-10.292-10.466h-5.075V1035.442z"/>
	<path d="M1916.188,1029.036c0.035,3.221,1.715,7.105,5.95,7.105c3.221,0,4.971-1.89,5.671-4.62h2.205   c-0.945,4.096-3.325,6.476-7.876,6.476c-5.74,0-8.155-4.41-8.155-9.556c0-4.761,2.415-9.556,8.155-9.556   c5.811,0,8.121,5.075,7.946,10.15H1916.188z M1927.88,1027.181c-0.105-3.324-2.171-6.44-5.741-6.44c-3.605,0-5.601,3.15-5.95,6.44   H1927.88z"/>
	<path d="M1945.8,1025.081c-0.596-2.695-2.24-4.341-5.11-4.341c-4.236,0-6.336,3.851-6.336,7.701s2.1,7.7,6.336,7.7   c2.729,0,4.97-2.135,5.25-5.145h2.205c-0.595,4.34-3.43,7-7.455,7c-5.531,0-8.541-4.375-8.541-9.556s3.01-9.556,8.541-9.556   c3.85,0,6.825,2.064,7.315,6.195H1945.8z"/>
	<path d="M1951.224,1019.41h2.03v4.235h0.069c1.12-2.905,3.57-4.62,6.826-4.48v2.205c-3.99-0.209-6.721,2.73-6.721,6.477v9.625   h-2.205V1019.41z"/>
	<path d="M1960.218,1019.41h2.345l5.951,15.401l5.565-15.401h2.205l-7.841,20.827c-1.26,3.045-1.995,3.92-4.761,3.92   c-0.875-0.034-1.33-0.034-1.68-0.174v-1.855c0.524,0.105,1.015,0.175,1.505,0.175c1.96,0,2.415-1.155,3.15-2.835l0.77-2.065   L1960.218,1019.41z"/>
	<path d="M1978.453,1019.41h2.03v3.431h0.069c1.016-2.451,3.535-3.955,6.441-3.955c5.495,0,8.12,4.445,8.12,9.556   s-2.625,9.556-8.12,9.556c-2.695,0-5.321-1.365-6.267-3.955h-0.069v10.115h-2.205V1019.41z M1986.994,1020.74   c-4.866,0-6.336,3.605-6.336,7.701c0,3.745,1.645,7.7,6.336,7.7c4.2,0,5.915-3.955,5.915-7.7S1991.194,1020.74,1986.994,1020.74z"/>
	<path d="M2002.043,1019.41h3.676v1.855h-3.676v12.181c0,1.436,0.21,2.275,1.785,2.381c0.63,0,1.26-0.035,1.891-0.105v1.891   c-0.665,0-1.296,0.07-1.961,0.07c-2.94,0-3.955-0.98-3.92-4.061v-12.356h-3.15v-1.855h3.15v-5.425h2.205V1019.41z"/>
	<path d="M1862.781,1079.472h-2.03v-3.255h-0.069c-1.155,2.415-3.536,3.78-6.23,3.78c-4.551,0-6.336-2.66-6.336-6.86v-11.727h2.205   v11.761c0.104,3.256,1.33,4.971,4.83,4.971c3.781,0,5.426-3.57,5.426-7.245v-9.486h2.205V1079.472z"/>
	<path d="M1877.761,1066.696c-0.104-2.73-2.205-3.956-4.726-3.956c-1.96,0-4.27,0.771-4.27,3.116c0,1.959,2.24,2.66,3.745,3.045   l2.94,0.664c2.52,0.386,5.146,1.855,5.146,5.006c0,3.921-3.886,5.426-7.246,5.426c-4.2,0-7.07-1.96-7.421-6.371h2.205   c0.176,2.977,2.381,4.516,5.321,4.516c2.064,0,4.936-0.91,4.936-3.43c0-2.101-1.961-2.801-3.956-3.291l-2.835-0.629   c-2.87-0.771-5.041-1.751-5.041-4.831c0-3.676,3.605-5.075,6.791-5.075c3.605,0,6.476,1.89,6.616,5.811H1877.761z"/>
	<path d="M1883.813,1054.479h2.206v3.535h-2.206V1054.479z M1883.813,1061.41h2.206v18.062h-2.206V1061.41z"/>
	<path d="M1890.22,1061.41h2.205v3.115h0.07c0.805-2.17,3.22-3.64,5.775-3.64c5.075,0,6.615,2.66,6.615,6.965v11.621h-2.205v-11.271   c0-3.116-1.015-5.461-4.585-5.461c-3.501,0-5.601,2.661-5.671,6.196v10.535h-2.205V1061.41z"/>
	<path d="M1924.311,1078.002c-0.035,5.391-2.101,8.681-8.017,8.681c-3.605,0-7.176-1.609-7.49-5.461h2.205   c0.49,2.661,2.835,3.605,5.285,3.605c4.061,0,5.811-2.414,5.811-6.825v-2.45h-0.069c-1.016,2.205-3.15,3.711-5.741,3.711   c-5.775,0-8.155-4.131-8.155-9.276c0-4.971,2.94-9.101,8.155-9.101c2.626,0,4.866,1.645,5.741,3.64h0.069v-3.115h2.206V1078.002z    M1922.104,1070.231c0-3.535-1.645-7.491-5.811-7.491c-4.2,0-5.95,3.745-5.95,7.491c0,3.641,1.89,7.176,5.95,7.176   C1920.109,1077.407,1922.104,1073.907,1922.104,1070.231z"/>
	<path d="M1949.055,1066.696c-0.104-2.73-2.205-3.956-4.726-3.956c-1.96,0-4.271,0.771-4.271,3.116c0,1.959,2.24,2.66,3.746,3.045   l2.94,0.664c2.52,0.386,5.146,1.855,5.146,5.006c0,3.921-3.886,5.426-7.246,5.426c-4.2,0-7.07-1.96-7.421-6.371h2.205   c0.176,2.977,2.381,4.516,5.321,4.516c2.064,0,4.936-0.91,4.936-3.43c0-2.101-1.961-2.801-3.956-3.291l-2.835-0.629   c-2.87-0.771-5.041-1.751-5.041-4.831c0-3.676,3.605-5.075,6.791-5.075c3.605,0,6.476,1.89,6.615,5.811H1949.055z"/>
	<path d="M1955.107,1054.479h2.206v3.535h-2.206V1054.479z M1955.107,1061.41h2.206v18.062h-2.206V1061.41z"/>
	<path d="M1976.811,1078.002c-0.035,5.391-2.101,8.681-8.017,8.681c-3.605,0-7.176-1.609-7.49-5.461h2.205   c0.49,2.661,2.835,3.605,5.285,3.605c4.061,0,5.811-2.414,5.811-6.825v-2.45h-0.069c-1.016,2.205-3.15,3.711-5.741,3.711   c-5.775,0-8.155-4.131-8.155-9.276c0-4.971,2.94-9.101,8.155-9.101c2.626,0,4.866,1.645,5.741,3.64h0.069v-3.115h2.206V1078.002z    M1974.604,1070.231c0-3.535-1.645-7.491-5.811-7.491c-4.2,0-5.95,3.745-5.95,7.491c0,3.641,1.89,7.176,5.95,7.176   C1972.609,1077.407,1974.604,1073.907,1974.604,1070.231z"/>
	<path d="M1980.974,1061.41h2.205v3.115h0.07c0.805-2.17,3.22-3.64,5.775-3.64c5.075,0,6.615,2.66,6.615,6.965v11.621h-2.205   v-11.271c0-3.116-1.015-5.461-4.585-5.461c-3.501,0-5.601,2.661-5.671,6.196v10.535h-2.205V1061.41z"/>
	<path d="M2001.098,1071.036c0.035,3.221,1.715,7.105,5.95,7.105c3.221,0,4.971-1.89,5.671-4.62h2.205   c-0.945,4.096-3.325,6.476-7.876,6.476c-5.74,0-8.155-4.41-8.155-9.556c0-4.761,2.415-9.556,8.155-9.556   c5.811,0,8.121,5.075,7.946,10.15H2001.098z M2012.789,1069.181c-0.105-3.324-2.171-6.44-5.741-6.44c-3.605,0-5.601,3.15-5.95,6.44   H2012.789z"/>
	<path d="M2017.968,1061.41h2.03v4.235h0.069c1.12-2.905,3.57-4.62,6.826-4.48v2.205c-3.99-0.209-6.721,2.73-6.721,6.477v9.625   h-2.205V1061.41z"/>
	<path d="M2033.297,1054.479v3.746c-0.034,2.029-0.979,4.164-3.115,4.76v-1.505c1.19-0.421,1.716-2.136,1.646-3.29h-1.47v-3.711   H2033.297z"/>
	<path d="M2045.653,1066.696c-0.104-2.73-2.205-3.956-4.726-3.956c-1.96,0-4.27,0.771-4.27,3.116c0,1.959,2.24,2.66,3.745,3.045   l2.94,0.664c2.52,0.386,5.146,1.855,5.146,5.006c0,3.921-3.886,5.426-7.246,5.426c-4.2,0-7.07-1.96-7.421-6.371h2.205   c0.176,2.977,2.381,4.516,5.321,4.516c2.064,0,4.936-0.91,4.936-3.43c0-2.101-1.961-2.801-3.956-3.291l-2.835-0.629   c-2.87-0.771-5.041-1.751-5.041-4.831c0-3.676,3.605-5.075,6.791-5.075c3.605,0,6.476,1.89,6.616,5.811H2045.653z"/>
	<path d="M1874.067,1103.41h2.03v3.431h0.069c1.016-2.451,3.535-3.955,6.44-3.955c5.496,0,8.121,4.445,8.121,9.556   s-2.625,9.556-8.121,9.556c-2.694,0-5.32-1.365-6.266-3.955h-0.069v10.115h-2.205V1103.41z M1882.607,1104.74   c-4.865,0-6.335,3.605-6.335,7.701c0,3.745,1.645,7.7,6.335,7.7c4.201,0,5.916-3.955,5.916-7.7S1886.809,1104.74,1882.607,1104.74z   "/>
	<path d="M1908.788,1121.472h-2.03v-3.255h-0.069c-1.155,2.415-3.536,3.78-6.231,3.78c-4.55,0-6.335-2.66-6.335-6.86v-11.727h2.205   v11.761c0.104,3.256,1.33,4.971,4.83,4.971c3.78,0,5.426-3.57,5.426-7.245v-9.486h2.205V1121.472z"/>
	<path d="M1912.951,1096.479h2.205v10.361h0.069c0.945-2.59,3.571-3.955,6.267-3.955c5.495,0,8.12,4.445,8.12,9.556   s-2.625,9.556-8.12,9.556c-2.906,0-5.426-1.505-6.441-3.955h-0.069v3.43h-2.03V1096.479z M1921.492,1104.74   c-4.691,0-6.336,3.956-6.336,7.701s1.645,7.7,6.336,7.7c4.2,0,5.915-3.955,5.915-7.7S1925.692,1104.74,1921.492,1104.74z"/>
	<path d="M1933.075,1096.479h2.206v24.992h-2.206V1096.479z"/>
	<path d="M1939.551,1096.479h2.206v3.535h-2.206V1096.479z M1939.551,1103.41h2.206v18.062h-2.206V1103.41z"/>
	<path d="M1958.732,1109.081c-0.596-2.695-2.24-4.341-5.11-4.341c-4.236,0-6.336,3.851-6.336,7.701s2.1,7.7,6.336,7.7   c2.729,0,4.97-2.135,5.25-5.145h2.205c-0.595,4.34-3.43,7-7.455,7c-5.531,0-8.541-4.375-8.541-9.556s3.01-9.556,8.541-9.556   c3.85,0,6.825,2.064,7.315,6.195H1958.732z"/>
	<path d="M1973.886,1096.479h2.205v15.682l10.011-8.751h2.94l-7.701,6.687l8.227,11.375h-2.766l-7.141-9.836l-3.57,2.976v6.86   h-2.205V1096.479z"/>
	<path d="M1992.681,1113.036c0.035,3.221,1.715,7.105,5.95,7.105c3.221,0,4.971-1.89,5.671-4.62h2.205   c-0.945,4.096-3.325,6.476-7.876,6.476c-5.74,0-8.155-4.41-8.155-9.556c0-4.761,2.415-9.556,8.155-9.556   c5.811,0,8.121,5.075,7.946,10.15H1992.681z M2004.372,1111.181c-0.105-3.324-2.171-6.44-5.741-6.44c-3.605,0-5.601,3.15-5.95,6.44   H2004.372z"/>
	<path d="M2007.521,1103.41h2.345l5.951,15.401l5.565-15.401h2.205l-7.841,20.827c-1.26,3.045-1.995,3.92-4.761,3.92   c-0.875-0.034-1.33-0.034-1.68-0.174v-1.855c0.524,0.105,1.015,0.175,1.505,0.175c1.96,0,2.415-1.155,3.15-2.835l0.77-2.065   L2007.521,1103.41z"/>
</g>
<polyline fill="none" stroke="#000000" stroke-width="7" points="1955.2,1186.45 1908.76,1186.45 1908.76,1208.25"/>
<line fill="none" stroke="#000000" stroke-width="7" x1="1925.498" y1="1186.452" x2="1925.498" y2="1208.247"/>
<circle fill="none" stroke="#000000" stroke-width="7" cx="1971.594" cy="1186.452" r="16.394"/>
<g>
	<path d="M254.503,1021.771c-0.959-4.398-4.599-6.918-8.758-6.918c-7.559,0-10.758,6.318-10.758,12.557   c0,6.24,3.2,12.559,10.758,12.559c5.279,0,8.639-4.079,9.158-9.158h2.72c-0.76,6.998-5.199,11.479-11.878,11.479   c-8.999,0-13.478-7.08-13.478-14.879c0-7.798,4.479-14.877,13.478-14.877c5.399,0,10.758,3.24,11.478,9.238H254.503z"/>
	<path d="M262.787,1032.05c0.04,3.679,1.959,8.118,6.799,8.118c3.679,0,5.679-2.159,6.479-5.279h2.52   c-1.08,4.679-3.799,7.399-8.999,7.399c-6.559,0-9.318-5.04-9.318-10.919c0-5.438,2.759-10.918,9.318-10.918   c6.639,0,9.278,5.799,9.079,11.599H262.787z M276.145,1029.93c-0.12-3.8-2.48-7.358-6.559-7.358c-4.119,0-6.399,3.599-6.799,7.358   H276.145z"/>
	<path d="M282.066,1021.051h2.32v4.839h0.08c1.28-3.318,4.079-5.279,7.798-5.119v2.52c-4.559-0.239-7.679,3.12-7.679,7.399v10.998   h-2.52V1021.051z"/>
	<path d="M298.666,1021.051h4.199v2.12h-4.199v13.918c0,1.639,0.24,2.6,2.04,2.719c0.72,0,1.44-0.039,2.16-0.119v2.159   c-0.76,0-1.479,0.079-2.24,0.079c-3.359,0-4.519-1.119-4.479-4.639v-14.117h-3.6v-2.12h3.6v-6.198h2.52V1021.051z"/>
	<path d="M306.546,1013.132h2.52v4.039h-2.52V1013.132z M306.546,1021.051h2.52v20.637h-2.52V1021.051z"/>
	<path d="M321.865,1023.171h-4.08v18.517h-2.52v-18.517h-3.52v-2.12h3.52v-1.88c-0.04-3.559,0.96-6.039,4.999-6.039   c0.72,0,1.32,0.041,2.12,0.16v2.16c-0.68-0.12-1.24-0.2-1.84-0.2c-2.8,0-2.72,1.76-2.76,3.999v1.8h4.08V1023.171z"/>
	<path d="M324.305,1013.132h2.52v4.039h-2.52V1013.132z M324.305,1021.051h2.52v20.637h-2.52V1021.051z"/>
	<path d="M346.223,1027.53c-0.68-3.08-2.56-4.959-5.839-4.959c-4.839,0-7.239,4.398-7.239,8.798s2.399,8.799,7.239,8.799   c3.12,0,5.679-2.44,5.999-5.88h2.52c-0.68,4.96-3.919,8-8.519,8c-6.319,0-9.758-5-9.758-10.919s3.439-10.918,9.758-10.918   c4.399,0,7.799,2.359,8.358,7.079H346.223z"/>
	<path d="M352.185,1027.37c0.24-4.84,3.639-6.919,8.358-6.919c3.64,0,7.599,1.12,7.599,6.639v10.958c0,0.96,0.479,1.52,1.479,1.52   c0.28,0,0.6-0.08,0.8-0.16v2.12c-0.56,0.12-0.96,0.16-1.64,0.16c-2.56,0-2.959-1.44-2.959-3.6h-0.08   c-1.76,2.68-3.559,4.2-7.519,4.2c-3.799,0-6.919-1.881-6.919-6.039c0-5.8,5.639-6,11.078-6.64c2.08-0.239,3.239-0.52,3.239-2.8   c0-3.398-2.439-4.238-5.399-4.238c-3.12,0-5.439,1.439-5.519,4.799H352.185z M365.623,1030.409h-0.08   c-0.32,0.6-1.44,0.801-2.12,0.92c-4.279,0.76-9.599,0.721-9.599,4.76c0,2.52,2.24,4.079,4.599,4.079   c3.839,0,7.239-2.44,7.199-6.479V1030.409z"/>
	<path d="M377.184,1021.051h4.199v2.12h-4.199v13.918c0,1.639,0.24,2.6,2.04,2.719c0.72,0,1.44-0.039,2.16-0.119v2.159   c-0.76,0-1.479,0.079-2.24,0.079c-3.359,0-4.519-1.119-4.479-4.639v-14.117h-3.6v-2.12h3.6v-6.198h2.52V1021.051z"/>
	<path d="M386.504,1032.05c0.04,3.679,1.959,8.118,6.799,8.118c3.679,0,5.679-2.159,6.479-5.279h2.52   c-1.08,4.679-3.799,7.399-8.999,7.399c-6.559,0-9.318-5.04-9.318-10.919c0-5.438,2.759-10.918,9.318-10.918   c6.639,0,9.278,5.799,9.079,11.599H386.504z M399.862,1029.93c-0.12-3.8-2.48-7.358-6.559-7.358c-4.119,0-6.399,3.599-6.799,7.358   H399.862z"/>
</g>
<g>
	<path d="M364.681,1762.542h9.878c8.599,0.2,13.118,4.92,13.118,14.277c0,9.359-4.519,14.078-13.118,14.278h-9.878V1762.542z    M367.4,1788.778h5.799c8.199,0.039,11.758-3.439,11.758-11.959c0-8.518-3.56-11.997-11.758-11.957H367.4V1788.778z"/>
	<path d="M391.641,1762.542h2.52v4.039h-2.52V1762.542z M391.641,1770.461h2.52v20.637h-2.52V1770.461z"/>
	<path d="M416.438,1789.418c-0.04,6.159-2.4,9.919-9.159,9.919c-4.119,0-8.199-1.84-8.559-6.24h2.52c0.56,3.04,3.24,4.12,6.039,4.12   c4.639,0,6.639-2.76,6.639-7.799v-2.8h-0.08c-1.16,2.52-3.6,4.24-6.559,4.24c-6.599,0-9.318-4.72-9.318-10.6   c0-5.678,3.359-10.397,9.318-10.397c3,0,5.559,1.88,6.559,4.159h0.08v-3.56h2.52V1789.418z M413.918,1780.54   c0-4.04-1.879-8.559-6.639-8.559c-4.799,0-6.799,4.279-6.799,8.559c0,4.158,2.16,8.198,6.799,8.198   C411.639,1788.738,413.918,1784.739,413.918,1780.54z"/>
	<path d="M421.281,1762.542h2.52v4.039h-2.52V1762.542z M421.281,1770.461h2.52v20.637h-2.52V1770.461z"/>
	<path d="M432.64,1770.461h4.199v2.12h-4.199v13.918c0,1.639,0.24,2.6,2.04,2.719c0.72,0,1.44-0.039,2.16-0.119v2.159   c-0.76,0-1.479,0.079-2.24,0.079c-3.359,0-4.519-1.119-4.479-4.639v-14.117h-3.6v-2.12h3.6v-6.198h2.52V1770.461z"/>
	<path d="M440.24,1776.78c0.24-4.84,3.639-6.919,8.358-6.919c3.64,0,7.599,1.12,7.599,6.639v10.958c0,0.96,0.479,1.52,1.479,1.52   c0.28,0,0.6-0.08,0.8-0.16v2.12c-0.56,0.12-0.96,0.16-1.64,0.16c-2.56,0-2.959-1.44-2.959-3.6h-0.08   c-1.76,2.68-3.559,4.2-7.519,4.2c-3.799,0-6.919-1.881-6.919-6.039c0-5.8,5.639-6,11.078-6.64c2.08-0.239,3.239-0.52,3.239-2.8   c0-3.398-2.439-4.238-5.399-4.238c-3.12,0-5.439,1.439-5.519,4.799H440.24z M453.678,1779.819h-0.08   c-0.32,0.6-1.44,0.801-2.12,0.92c-4.279,0.76-9.599,0.721-9.599,4.76c0,2.52,2.24,4.079,4.599,4.079   c3.839,0,7.239-2.44,7.199-6.479V1779.819z"/>
	<path d="M461.28,1762.542h2.52v28.556h-2.52V1762.542z"/>
	<path d="M468.68,1762.542h2.52v28.556h-2.52V1762.542z"/>
	<path d="M473.72,1770.461h2.68l6.799,17.597l6.359-17.597h2.52l-8.958,23.796c-1.44,3.479-2.28,4.479-5.439,4.479   c-1-0.04-1.52-0.04-1.92-0.2v-2.119c0.6,0.119,1.16,0.199,1.72,0.199c2.24,0,2.76-1.319,3.6-3.238l0.879-2.36L473.72,1770.461z"/>
	<path d="M518.038,1776.5c-0.12-3.119-2.52-4.519-5.399-4.519c-2.24,0-4.879,0.879-4.879,3.559c0,2.24,2.56,3.039,4.279,3.479   l3.36,0.761c2.879,0.439,5.879,2.119,5.879,5.719c0,4.479-4.439,6.199-8.279,6.199c-4.799,0-8.079-2.24-8.479-7.279h2.52   c0.2,3.399,2.72,5.159,6.079,5.159c2.359,0,5.639-1.04,5.639-3.919c0-2.4-2.24-3.2-4.52-3.76l-3.239-0.721   c-3.279-0.879-5.759-1.999-5.759-5.519c0-4.199,4.12-5.799,7.759-5.799c4.12,0,7.399,2.159,7.559,6.639H518.038z"/>
	<path d="M524.959,1762.542h2.52v4.039h-2.52V1762.542z M524.959,1770.461h2.52v20.637h-2.52V1770.461z"/>
	<path d="M549.756,1789.418c-0.04,6.159-2.4,9.919-9.159,9.919c-4.119,0-8.199-1.84-8.559-6.24h2.52c0.56,3.04,3.24,4.12,6.039,4.12   c4.639,0,6.639-2.76,6.639-7.799v-2.8h-0.08c-1.16,2.52-3.6,4.24-6.559,4.24c-6.599,0-9.318-4.72-9.318-10.6   c0-5.678,3.359-10.397,9.318-10.397c3,0,5.559,1.88,6.559,4.159h0.08v-3.56h2.52V1789.418z M547.236,1780.54   c0-4.04-1.879-8.559-6.639-8.559c-4.799,0-6.799,4.279-6.799,8.559c0,4.158,2.16,8.198,6.799,8.198   C544.957,1788.738,547.236,1784.739,547.236,1780.54z"/>
	<path d="M554.519,1770.461h2.52v3.56h0.08c0.92-2.479,3.68-4.159,6.599-4.159c5.799,0,7.559,3.04,7.559,7.958v13.278h-2.52v-12.878   c0-3.559-1.16-6.238-5.239-6.238c-3.999,0-6.399,3.039-6.479,7.078v12.038h-2.52V1770.461z"/>
	<path d="M577.519,1781.46c0.04,3.679,1.959,8.118,6.799,8.118c3.679,0,5.679-2.159,6.479-5.279h2.52   c-1.08,4.679-3.799,7.399-8.999,7.399c-6.559,0-9.318-5.04-9.318-10.919c0-5.438,2.759-10.918,9.318-10.918   c6.639,0,9.278,5.799,9.079,11.599H577.519z M590.876,1779.34c-0.12-3.8-2.48-7.358-6.559-7.358c-4.119,0-6.399,3.599-6.799,7.358   H590.876z"/>
	<path d="M614.956,1791.098h-2.32v-3.919h-0.08c-1.08,2.68-4.359,4.52-7.358,4.52c-6.279,0-9.279-5.08-9.279-10.919   s3-10.918,9.279-10.918c3.079,0,6.079,1.56,7.159,4.519h0.08v-11.838h2.52V1791.098z M605.197,1789.578   c5.359,0,7.239-4.52,7.239-8.799s-1.88-8.798-7.239-8.798c-4.799,0-6.759,4.519-6.759,8.798S600.398,1789.578,605.197,1789.578z"/>
	<path d="M649.035,1791.098h-2.32v-3.919h-0.08c-1.08,2.68-4.359,4.52-7.358,4.52c-6.279,0-9.279-5.08-9.279-10.919   s3-10.918,9.279-10.918c3.079,0,6.079,1.56,7.159,4.519h0.08v-11.838h2.52V1791.098z M639.277,1789.578   c5.359,0,7.239-4.52,7.239-8.799s-1.88-8.798-7.239-8.798c-4.799,0-6.759,4.519-6.759,8.798S634.478,1789.578,639.277,1789.578z"/>
	<path d="M653.598,1776.78c0.24-4.84,3.639-6.919,8.358-6.919c3.64,0,7.599,1.12,7.599,6.639v10.958c0,0.96,0.479,1.52,1.479,1.52   c0.28,0,0.6-0.08,0.8-0.16v2.12c-0.56,0.12-0.96,0.16-1.64,0.16c-2.56,0-2.959-1.44-2.959-3.6h-0.08   c-1.76,2.68-3.559,4.2-7.519,4.2c-3.799,0-6.919-1.881-6.919-6.039c0-5.8,5.639-6,11.078-6.64c2.08-0.239,3.239-0.52,3.239-2.8   c0-3.398-2.439-4.238-5.399-4.238c-3.12,0-5.439,1.439-5.519,4.799H653.598z M667.035,1779.819h-0.08   c-0.32,0.6-1.44,0.801-2.12,0.92c-4.279,0.76-9.599,0.721-9.599,4.76c0,2.52,2.24,4.079,4.599,4.079   c3.839,0,7.239-2.44,7.199-6.479V1779.819z"/>
	<path d="M678.597,1770.461h4.199v2.12h-4.199v13.918c0,1.639,0.24,2.6,2.04,2.719c0.72,0,1.44-0.039,2.16-0.119v2.159   c-0.76,0-1.479,0.079-2.24,0.079c-3.359,0-4.519-1.119-4.479-4.639v-14.117h-3.6v-2.12h3.6v-6.198h2.52V1770.461z"/>
	<path d="M686.197,1776.78c0.24-4.84,3.639-6.919,8.358-6.919c3.64,0,7.599,1.12,7.599,6.639v10.958c0,0.96,0.479,1.52,1.479,1.52   c0.28,0,0.6-0.08,0.8-0.16v2.12c-0.56,0.12-0.96,0.16-1.64,0.16c-2.56,0-2.959-1.44-2.959-3.6h-0.08   c-1.76,2.68-3.559,4.2-7.519,4.2c-3.799,0-6.919-1.881-6.919-6.039c0-5.8,5.639-6,11.078-6.64c2.08-0.239,3.239-0.52,3.239-2.8   c0-3.398-2.439-4.238-5.399-4.238c-3.12,0-5.439,1.439-5.519,4.799H686.197z M699.635,1779.819h-0.08   c-0.32,0.6-1.44,0.801-2.12,0.92c-4.279,0.76-9.599,0.721-9.599,4.76c0,2.52,2.24,4.079,4.599,4.079   c3.839,0,7.239-2.44,7.199-6.479V1779.819z"/>
</g>
<rect x="247.284" y="789.927" fill="#E6E7E8" stroke="#000000" stroke-width="3" width="139.564" height="171.326"/>
<line fill="none" stroke="#000000" stroke-width="2" x1="267.339" y1="937.853" x2="366.79" y2="937.853"/>
<line fill="none" stroke="#000000" stroke-width="2" x1="267.339" y1="912.781" x2="366.79" y2="912.781"/>
<line fill="none" stroke="#000000" stroke-width="2" x1="267.339" y1="887.708" x2="366.79" y2="887.708"/>
<line fill="none" stroke="#000000" stroke-width="2" x1="267.339" y1="862.638" x2="366.79" y2="862.638"/>
<line fill="none" stroke="#000000" stroke-width="2" x1="267.339" y1="837.564" x2="366.79" y2="837.564"/>
<line fill="none" stroke="#000000" stroke-width="2" x1="267.339" y1="812.492" x2="366.79" y2="812.492"/>
<polygon fill="#FFFFFF" stroke="#000000" stroke-width="3" points="331.302,989.878 300.388,899.227 269.469,989.878 300.388,968.032"/>
<polygon fill="#FFFFFF" stroke="#000000" stroke-width="3" points="300.386,884.006 305.307,894.305 313.308,886.163 314.617,897.5 324.827,892.396 322.385,903.545 333.698,902.034 327.769,911.787 338.96,914.03 330.187,921.329 340.042,927.083 329.372,931.139 336.826,939.783 325.42,940.154 329.662,950.749 318.753,947.395 319.324,958.794 310.096,952.08 306.935,963.046 300.386,953.7 293.836,963.046 290.677,952.08 281.447,958.794 282.021,947.395 271.109,950.749 275.354,940.152 263.945,939.783 271.398,931.139 260.729,927.083 270.586,921.329 261.813,914.03 273.004,911.787 267.072,902.034 278.385,903.545 275.944,892.396 286.154,897.5 287.466,886.163 295.466,894.305"/>
<path fill="none" stroke="#000000" stroke-width="6" stroke-linejoin="round" stroke-miterlimit="10" d="M533.466,1192.759  c0-144.983,370,0,370-144.983"/>
<path fill="none" stroke="#000000" stroke-width="6" stroke-linejoin="round" stroke-miterlimit="10" stroke-dasharray="20,10" d="  M163.466,1047.775c0,144.983,370,0,370,144.983"/>
<g>
	<path d="M488.765,1262.542h3.039l11.198,28.556h-2.919l-3.479-8.879h-12.998l-3.439,8.879h-2.92L488.765,1262.542z    M484.445,1279.899h11.238l-5.52-14.638L484.445,1279.899z"/>
	<path d="M509.124,1270.461h4.2v2.12h-4.2v13.917c0,1.64,0.24,2.6,2.04,2.72c0.72,0,1.439-0.04,2.16-0.12v2.16   c-0.761,0-1.48,0.08-2.24,0.08c-3.359,0-4.519-1.12-4.479-4.64v-14.117h-3.599v-2.12h3.599v-6.199h2.52V1270.461z"/>
	<path d="M520.964,1270.461h4.2v2.12h-4.2v13.917c0,1.64,0.24,2.6,2.04,2.72c0.72,0,1.439-0.04,2.16-0.12v2.16   c-0.761,0-1.48,0.08-2.24,0.08c-3.359,0-4.519-1.12-4.479-4.64v-14.117h-3.599v-2.12h3.599v-6.199h2.52V1270.461z"/>
	<path d="M528.564,1276.78c0.24-4.84,3.64-6.919,8.359-6.919c3.639,0,7.599,1.12,7.599,6.639v10.958c0,0.96,0.479,1.52,1.479,1.52   c0.28,0,0.6-0.079,0.8-0.159v2.119c-0.56,0.12-0.96,0.16-1.64,0.16c-2.56,0-2.96-1.439-2.96-3.6h-0.079   c-1.76,2.68-3.56,4.199-7.52,4.199c-3.799,0-6.919-1.879-6.919-6.039c0-5.799,5.64-5.999,11.079-6.639   c2.079-0.24,3.239-0.52,3.239-2.8c0-3.399-2.439-4.239-5.399-4.239c-3.119,0-5.439,1.44-5.519,4.8H528.564z M542.003,1279.819   h-0.08c-0.32,0.601-1.439,0.8-2.12,0.92c-4.279,0.76-9.598,0.72-9.598,4.76c0,2.52,2.239,4.079,4.599,4.079   c3.84,0,7.239-2.439,7.199-6.479V1279.819z"/>
	<path d="M564.122,1276.94c-0.68-3.08-2.56-4.96-5.839-4.96c-4.839,0-7.239,4.399-7.239,8.799s2.4,8.799,7.239,8.799   c3.119,0,5.679-2.439,5.999-5.879h2.52c-0.68,4.959-3.919,7.998-8.519,7.998c-6.319,0-9.759-4.999-9.759-10.918   s3.439-10.918,9.759-10.918c4.399,0,7.799,2.359,8.358,7.079H564.122z"/>
	<path d="M570.284,1262.542h2.52v11.479h0.08c0.92-2.479,3.68-4.159,6.599-4.159c5.8,0,7.56,3.039,7.56,7.959v13.277h-2.52v-12.878   c0-3.56-1.16-6.239-5.239-6.239c-4,0-6.399,3.04-6.479,7.079v12.038h-2.52V1262.542z"/>
	<path d="M479.104,1318.461h4.2v2.12h-4.2v13.917c0,1.64,0.24,2.6,2.04,2.72c0.72,0,1.439-0.04,2.16-0.12v2.16   c-0.761,0-1.48,0.08-2.24,0.08c-3.359,0-4.519-1.12-4.479-4.64v-14.117h-3.599v-2.12h3.599v-6.199h2.52V1318.461z"/>
	<path d="M505.423,1328.779c0,5.919-3.439,10.918-9.759,10.918s-9.759-4.999-9.759-10.918s3.439-10.918,9.759-10.918   S505.423,1322.86,505.423,1328.779z M488.425,1328.779c0,4.399,2.4,8.799,7.239,8.799s7.238-4.399,7.238-8.799   s-2.399-8.799-7.238-8.799S488.425,1324.38,488.425,1328.779z"/>
	<path d="M538.462,1339.098h-2.319v-3.919h-0.08c-1.08,2.679-4.359,4.519-7.359,4.519c-6.278,0-9.278-5.079-9.278-10.918   s3-10.918,9.278-10.918c3.08,0,6.079,1.56,7.159,4.52h0.08v-11.839h2.52V1339.098z M528.703,1337.578   c5.359,0,7.239-4.52,7.239-8.799s-1.88-8.799-7.239-8.799c-4.799,0-6.759,4.52-6.759,8.799S523.904,1337.578,528.703,1337.578z"/>
	<path d="M543.024,1324.78c0.24-4.84,3.64-6.919,8.359-6.919c3.639,0,7.599,1.12,7.599,6.639v10.958c0,0.96,0.479,1.52,1.479,1.52   c0.28,0,0.6-0.079,0.8-0.159v2.119c-0.56,0.12-0.96,0.16-1.64,0.16c-2.56,0-2.96-1.439-2.96-3.6h-0.079   c-1.76,2.68-3.56,4.199-7.52,4.199c-3.799,0-6.918-1.879-6.918-6.039c0-5.799,5.639-5.999,11.078-6.639   c2.079-0.24,3.239-0.52,3.239-2.8c0-3.399-2.439-4.239-5.399-4.239c-3.119,0-5.439,1.44-5.519,4.8H543.024z M556.463,1327.819   h-0.08c-0.32,0.601-1.44,0.8-2.12,0.92c-4.279,0.76-9.598,0.72-9.598,4.76c0,2.52,2.239,4.079,4.599,4.079   c3.84,0,7.239-2.439,7.199-6.479V1327.819z"/>
	<path d="M568.024,1318.461h4.199v2.12h-4.199v13.917c0,1.64,0.239,2.6,2.039,2.72c0.72,0,1.439-0.04,2.16-0.12v2.16   c-0.761,0-1.48,0.08-2.24,0.08c-3.359,0-4.52-1.12-4.479-4.64v-14.117h-3.599v-2.12h3.599v-6.199h2.521V1318.461z"/>
	<path d="M575.624,1324.78c0.24-4.84,3.64-6.919,8.359-6.919c3.639,0,7.599,1.12,7.599,6.639v10.958c0,0.96,0.479,1.52,1.479,1.52   c0.28,0,0.6-0.079,0.8-0.159v2.119c-0.56,0.12-0.96,0.16-1.64,0.16c-2.56,0-2.96-1.439-2.96-3.6h-0.079   c-1.76,2.68-3.56,4.199-7.52,4.199c-3.799,0-6.918-1.879-6.918-6.039c0-5.799,5.639-5.999,11.078-6.639   c2.079-0.24,3.239-0.52,3.239-2.8c0-3.399-2.439-4.239-5.399-4.239c-3.119,0-5.439,1.44-5.519,4.8H575.624z M589.063,1327.819   h-0.08c-0.32,0.601-1.44,0.8-2.12,0.92c-4.279,0.76-9.598,0.72-9.598,4.76c0,2.52,2.239,4.079,4.599,4.079   c3.84,0,7.239-2.439,7.199-6.479V1327.819z"/>
</g>
<rect x="510.067" y="938.901" width="46.07" height="35.713"/>
<path fill="#FFFFFF" stroke="#000000" stroke-width="9" d="M518.54,938.901v-6.959c0-22.578,29.125-22.69,29.125,0v6.959"/>
<g>
	<path d="M1870.451,902.289c-0.119,5.879,4.119,7.679,9.318,7.679c3,0,7.559-1.64,7.559-5.799c0-3.24-3.239-4.52-5.879-5.159   l-6.359-1.56c-3.359-0.84-6.438-2.439-6.438-6.879c0-2.799,1.8-8.039,9.839-8.039c5.639,0,10.598,3.04,10.559,8.879h-2.721   c-0.16-4.359-3.759-6.559-7.799-6.559c-3.719,0-7.158,1.44-7.158,5.679c0,2.679,2,3.799,4.319,4.359l6.959,1.72   c4.039,1.08,7.398,2.84,7.398,7.519c0,1.959-0.8,8.159-10.918,8.159c-6.759,0-11.718-3.04-11.397-9.999H1870.451z"/>
	<path d="M1893.932,883.132h2.52v4.039h-2.52V883.132z M1893.932,891.051h2.52v20.637h-2.52V891.051z"/>
	<path d="M1918.729,910.008c-0.04,6.159-2.4,9.918-9.158,9.918c-4.119,0-8.199-1.84-8.559-6.239h2.52   c0.56,3.04,3.239,4.12,6.039,4.12c4.639,0,6.639-2.76,6.639-7.799v-2.799h-0.08c-1.16,2.52-3.6,4.239-6.559,4.239   c-6.6,0-9.318-4.719-9.318-10.599c0-5.679,3.359-10.398,9.318-10.398c2.999,0,5.559,1.879,6.559,4.159h0.08v-3.56h2.52V910.008z    M1916.209,901.129c0-4.04-1.88-8.559-6.639-8.559c-4.8,0-6.799,4.279-6.799,8.559c0,4.159,2.159,8.199,6.799,8.199   C1913.93,909.328,1916.209,905.329,1916.209,901.129z"/>
	<path d="M1923.49,891.051h2.521v3.56h0.079c0.92-2.479,3.68-4.159,6.6-4.159c5.799,0,7.559,3.04,7.559,7.958v13.278h-2.52V898.81   c0-3.559-1.16-6.239-5.239-6.239c-3.999,0-6.399,3.04-6.479,7.079v12.038h-2.521V891.051z"/>
	<path d="M1944.771,897.37c0.239-4.839,3.64-6.919,8.358-6.919c3.64,0,7.6,1.12,7.6,6.639v10.958c0,0.959,0.479,1.52,1.479,1.52   c0.28,0,0.601-0.08,0.801-0.16v2.12c-0.561,0.12-0.961,0.16-1.641,0.16c-2.559,0-2.959-1.44-2.959-3.6h-0.08   c-1.76,2.68-3.559,4.2-7.519,4.2c-3.8,0-6.919-1.88-6.919-6.039c0-5.799,5.639-5.999,11.078-6.639   c2.08-0.24,3.239-0.52,3.239-2.799c0-3.399-2.439-4.239-5.399-4.239c-3.119,0-5.438,1.439-5.519,4.799H1944.771z M1958.208,900.409   h-0.079c-0.32,0.6-1.44,0.8-2.12,0.92c-4.279,0.76-9.599,0.72-9.599,4.759c0,2.52,2.24,4.08,4.6,4.08   c3.839,0,7.238-2.44,7.198-6.479V900.409z"/>
	<path d="M1969.77,891.051h4.199v2.12h-4.199v13.918c0,1.64,0.24,2.6,2.039,2.719c0.721,0,1.44-0.04,2.16-0.12v2.16   c-0.76,0-1.479,0.08-2.24,0.08c-3.359,0-4.519-1.12-4.479-4.639V893.17h-3.6v-2.12h3.6v-6.199h2.52V891.051z"/>
	<path d="M1994.327,911.688h-2.319v-3.719h-0.08c-1.32,2.759-4.039,4.319-7.119,4.319c-5.199,0-7.238-3.04-7.238-7.839v-13.398h2.52   v13.438c0.119,3.719,1.52,5.679,5.52,5.679c4.318,0,6.198-4.08,6.198-8.279v-10.838h2.52V911.688z"/>
	<path d="M1999.09,891.051h2.319v4.839h0.08c1.28-3.319,4.079-5.279,7.798-5.119v2.52c-4.559-0.24-7.678,3.12-7.678,7.399v10.998   h-2.52V891.051z"/>
	<path d="M2012.449,902.049c0.04,3.679,1.959,8.119,6.799,8.119c3.68,0,5.68-2.16,6.479-5.279h2.52   c-1.08,4.679-3.799,7.399-8.998,7.399c-6.559,0-9.318-5.04-9.318-10.918c0-5.439,2.76-10.918,9.318-10.918   c6.639,0,9.278,5.799,9.078,11.598H2012.449z M2025.807,899.93c-0.119-3.8-2.479-7.359-6.559-7.359   c-4.119,0-6.398,3.599-6.799,7.359H2025.807z"/>
</g>
<rect x="1791.103" y="772.699" fill="#E6E7E8" stroke="#000000" stroke-width="3" width="319.782" height="79.988"/>
<g>
	<path d="M1828.25,804.597c4.4-0.16,7.119-0.24,7.879-5.399h2.041v27.995h-2.52v-20.796h-7.4V804.597z"/>
	<path d="M1850.49,804.597c4.4-0.16,7.119-0.24,7.879-5.399h2.041v27.995h-2.52v-20.796h-7.4V804.597z"/>
	<path d="M1872.73,804.597c4.4-0.16,7.119-0.24,7.879-5.399h2.041v27.995h-2.52v-20.796h-7.4V804.597z"/>
	<path d="M1894.971,804.597c4.398-0.16,7.119-0.24,7.879-5.399h2.039v27.995h-2.52v-20.796h-7.398V804.597z"/>
	<path d="M1934.209,813.355c0,6.559-1.602,14.438-9.76,14.438s-9.758-7.879-9.758-14.398c0-6.559,1.6-14.438,9.758-14.438   S1934.209,806.837,1934.209,813.355z M1917.211,813.355c0,4.879,0.84,12.318,7.238,12.318s7.238-7.439,7.238-12.318   c0-4.839-0.84-12.278-7.238-12.278S1917.211,808.517,1917.211,813.355z"/>
	<path d="M1939.451,804.597c4.398-0.16,7.119-0.24,7.879-5.399h2.039v27.995h-2.52v-20.796h-7.398V804.597z"/>
	<path d="M1961.689,804.597c4.4-0.16,7.119-0.24,7.879-5.399h2.041v27.995h-2.52v-20.796h-7.4V804.597z"/>
	<path d="M2000.928,813.355c0,6.559-1.6,14.438-9.758,14.438s-9.76-7.879-9.76-14.398c0-6.559,1.602-14.438,9.76-14.438   S2000.928,806.837,2000.928,813.355z M1983.93,813.355c0,4.879,0.84,12.318,7.24,12.318c6.398,0,7.238-7.439,7.238-12.318   c0-4.839-0.84-12.278-7.238-12.278C1984.77,801.078,1983.93,808.517,1983.93,813.355z"/>
	<path d="M2006.17,804.597c4.4-0.16,7.119-0.24,7.879-5.399h2.041v27.995h-2.52v-20.796h-7.4V804.597z"/>
	<path d="M2028.41,804.597c4.4-0.16,7.119-0.24,7.879-5.399h2.041v27.995h-2.52v-20.796h-7.4V804.597z"/>
	<path d="M2050.65,804.597c4.4-0.16,7.119-0.24,7.879-5.399h2.041v27.995h-2.52v-20.796h-7.4V804.597z"/>
	<path d="M2089.889,813.355c0,6.559-1.602,14.438-9.76,14.438s-9.758-7.879-9.758-14.398c0-6.559,1.6-14.438,9.758-14.438   S2089.889,806.837,2089.889,813.355z M2072.891,813.355c0,4.879,0.84,12.318,7.238,12.318s7.238-7.439,7.238-12.318   c0-4.839-0.84-12.278-7.238-12.278S2072.891,808.517,2072.891,813.355z"/>
</g>
<rect x="1768.067" y="808.901" width="46.07" height="35.713"/>
<path fill="#FFFFFF" stroke="#000000" stroke-width="9" d="M1776.54,808.901v-6.959c0-22.578,29.125-22.69,29.125,0v6.959"/>
<polygon fill="#E6E7E8" stroke="#000000" stroke-width="3" points="629.491,1544.38 629.491,1710.26 437.44,1710.26 437.44,1474.51 559.616,1474.51"/>
<polyline fill="#E6E7E8" stroke="#000000" stroke-width="3" points="629.491,1544.38 559.615,1544.38 559.615,1474.51"/>
<line fill="#E6E7E8" stroke="#000000" stroke-width="2" x1="465.041" y1="1678.059" x2="601.891" y2="1678.059"/>
<line fill="#E6E7E8" stroke="#000000" stroke-width="2" x1="465.041" y1="1643.559" x2="601.891" y2="1643.559"/>
<line fill="#E6E7E8" stroke="#000000" stroke-width="2" x1="465.041" y1="1609.059" x2="601.891" y2="1609.059"/>
<line fill="#E6E7E8" stroke="#000000" stroke-width="2" x1="465.041" y1="1574.559" x2="601.891" y2="1574.559"/>
<line fill="#E6E7E8" stroke="#000000" stroke-width="2" x1="465.041" y1="1540.059" x2="533.275" y2="1540.059"/>
<line fill="#E6E7E8" stroke="#000000" stroke-width="2" x1="465.041" y1="1505.559" x2="533.275" y2="1505.559"/>
<polygon fill="#FFFFFF" stroke="#000000" stroke-width="3" points="534.635,1736.54 499.084,1632.29 463.527,1736.54 499.084,1711.42"/>
<polygon fill="#FFFFFF" stroke="#000000" stroke-width="3" points="499.081,1614.79 504.74,1626.63 513.941,1617.27 515.447,1630.3 527.189,1624.43 524.381,1637.26 537.391,1635.52 530.571,1646.73 543.441,1649.31 533.353,1657.71 544.687,1664.32 532.416,1668.99 540.988,1678.93 527.871,1679.35 532.749,1691.54 520.204,1687.68 520.86,1700.79 510.248,1693.07 506.612,1705.68 499.081,1694.93 491.549,1705.68 487.916,1693.07 477.303,1700.79 477.962,1687.68 465.414,1691.54 470.296,1679.35 457.175,1678.93 465.746,1668.99 453.476,1664.32 464.812,1657.71 454.723,1649.31 467.593,1646.73 460.771,1635.52 473.78,1637.26 470.974,1624.43 482.716,1630.3 484.224,1617.27 493.424,1626.63"/>
<g>
	<path d="M1458.427,604.24h9.878c8.6,0.2,13.118,4.919,13.118,14.277c0,9.359-4.519,14.078-13.118,14.278h-9.878V604.24z    M1461.146,630.476h5.799c8.199,0.04,11.758-3.439,11.758-11.958s-3.559-11.998-11.758-11.958h-5.799V630.476z"/>
	<path d="M1485.387,604.24h2.52v4.039h-2.52V604.24z M1485.387,612.159h2.52v20.637h-2.52V612.159z"/>
	<path d="M1510.184,631.116c-0.039,6.159-2.399,9.918-9.158,9.918c-4.119,0-8.199-1.84-8.559-6.239h2.52   c0.561,3.04,3.24,4.12,6.039,4.12c4.639,0,6.639-2.76,6.639-7.799v-2.799h-0.08c-1.16,2.52-3.6,4.239-6.559,4.239   c-6.6,0-9.318-4.719-9.318-10.599c0-5.679,3.359-10.398,9.318-10.398c3,0,5.559,1.879,6.559,4.159h0.08v-3.56h2.52V631.116z    M1507.664,622.237c0-4.04-1.879-8.559-6.639-8.559c-4.799,0-6.799,4.279-6.799,8.559c0,4.159,2.16,8.199,6.799,8.199   C1505.385,630.436,1507.664,626.437,1507.664,622.237z"/>
	<path d="M1515.027,604.24h2.52v4.039h-2.52V604.24z M1515.027,612.159h2.52v20.637h-2.52V612.159z"/>
	<path d="M1526.386,612.159h4.199v2.12h-4.199v13.918c0,1.64,0.239,2.6,2.04,2.719c0.72,0,1.439-0.04,2.159-0.12v2.16   c-0.76,0-1.479,0.08-2.239,0.08c-3.359,0-4.52-1.12-4.479-4.639v-14.118h-3.6v-2.12h3.6v-6.199h2.52V612.159z"/>
	<path d="M1533.986,618.478c0.24-4.839,3.639-6.919,8.358-6.919c3.64,0,7.599,1.12,7.599,6.639v10.958c0,0.959,0.48,1.52,1.48,1.52   c0.279,0,0.6-0.08,0.799-0.16v2.12c-0.559,0.12-0.959,0.16-1.639,0.16c-2.561,0-2.96-1.44-2.96-3.6h-0.08   c-1.76,2.68-3.56,4.2-7.519,4.2c-3.799,0-6.919-1.88-6.919-6.039c0-5.799,5.64-5.999,11.078-6.639   c2.079-0.24,3.239-0.52,3.239-2.799c0-3.399-2.439-4.239-5.398-4.239c-3.12,0-5.439,1.439-5.52,4.799H1533.986z M1547.424,621.517   h-0.08c-0.32,0.6-1.439,0.8-2.119,0.92c-4.279,0.76-9.599,0.72-9.599,4.759c0,2.52,2.239,4.08,4.599,4.08   c3.84,0,7.239-2.44,7.199-6.479V621.517z"/>
	<path d="M1555.025,604.24h2.52v28.555h-2.52V604.24z"/>
	<path d="M1562.426,604.24h2.52v28.555h-2.52V604.24z"/>
	<path d="M1567.467,612.159h2.68l6.799,17.597l6.358-17.597h2.52l-8.958,23.796c-1.44,3.479-2.28,4.479-5.439,4.479   c-1-0.04-1.52-0.04-1.92-0.2v-2.12c0.6,0.12,1.16,0.2,1.72,0.2c2.239,0,2.76-1.32,3.6-3.239l0.88-2.36L1567.467,612.159z"/>
	<path d="M1611.783,618.198c-0.119-3.119-2.52-4.519-5.398-4.519c-2.24,0-4.879,0.88-4.879,3.559c0,2.24,2.559,3.04,4.279,3.479   l3.359,0.76c2.879,0.439,5.879,2.12,5.879,5.719c0,4.479-4.439,6.199-8.279,6.199c-4.799,0-8.078-2.24-8.479-7.279h2.52   c0.201,3.399,2.721,5.159,6.08,5.159c2.359,0,5.639-1.04,5.639-3.919c0-2.4-2.24-3.2-4.52-3.759l-3.239-0.72   c-3.279-0.88-5.759-2-5.759-5.519c0-4.199,4.119-5.799,7.758-5.799c4.12,0,7.399,2.16,7.559,6.639H1611.783z"/>
	<path d="M1618.705,604.24h2.52v4.039h-2.52V604.24z M1618.705,612.159h2.52v20.637h-2.52V612.159z"/>
	<path d="M1643.502,631.116c-0.039,6.159-2.399,9.918-9.158,9.918c-4.119,0-8.199-1.84-8.559-6.239h2.52   c0.561,3.04,3.24,4.12,6.039,4.12c4.639,0,6.639-2.76,6.639-7.799v-2.799h-0.08c-1.16,2.52-3.6,4.239-6.559,4.239   c-6.6,0-9.318-4.719-9.318-10.599c0-5.679,3.359-10.398,9.318-10.398c3,0,5.559,1.879,6.559,4.159h0.08v-3.56h2.52V631.116z    M1640.982,622.237c0-4.04-1.879-8.559-6.639-8.559c-4.799,0-6.799,4.279-6.799,8.559c0,4.159,2.16,8.199,6.799,8.199   C1638.703,630.436,1640.982,626.437,1640.982,622.237z"/>
	<path d="M1648.266,612.159h2.52v3.56h0.08c0.92-2.479,3.68-4.159,6.599-4.159c5.799,0,7.559,3.04,7.559,7.958v13.278h-2.52v-12.878   c0-3.559-1.159-6.239-5.239-6.239c-3.999,0-6.398,3.04-6.479,7.079v12.038h-2.52V612.159z"/>
	<path d="M1671.265,623.157c0.04,3.679,1.96,8.119,6.799,8.119c3.679,0,5.679-2.16,6.479-5.279h2.52   c-1.08,4.679-3.8,7.399-8.999,7.399c-6.56,0-9.318-5.04-9.318-10.918c0-5.439,2.759-10.918,9.318-10.918   c6.639,0,9.278,5.799,9.079,11.598H1671.265z M1684.623,621.038c-0.121-3.8-2.48-7.359-6.56-7.359   c-4.119,0-6.399,3.599-6.799,7.359H1684.623z"/>
	<path d="M1708.701,632.795h-2.319v-3.919h-0.08c-1.079,2.68-4.358,4.52-7.358,4.52c-6.279,0-9.279-5.079-9.279-10.918   c0-5.839,3-10.918,9.279-10.918c3.079,0,6.078,1.56,7.158,4.519h0.08V604.24h2.52V632.795z M1698.943,631.276   c5.359,0,7.238-4.52,7.238-8.799s-1.879-8.798-7.238-8.798c-4.799,0-6.759,4.519-6.759,8.798S1694.145,631.276,1698.943,631.276z"/>
	<path d="M1742.781,632.795h-2.32v-3.919h-0.08c-1.079,2.68-4.358,4.52-7.357,4.52c-6.279,0-9.279-5.079-9.279-10.918   c0-5.839,3-10.918,9.279-10.918c3.078,0,6.078,1.56,7.158,4.519h0.08V604.24h2.52V632.795z M1733.023,631.276   c5.358,0,7.238-4.52,7.238-8.799s-1.88-8.798-7.238-8.798c-4.8,0-6.76,4.519-6.76,8.798S1728.224,631.276,1733.023,631.276z"/>
	<path d="M1747.344,618.478c0.24-4.839,3.639-6.919,8.358-6.919c3.64,0,7.599,1.12,7.599,6.639v10.958c0,0.959,0.48,1.52,1.48,1.52   c0.279,0,0.6-0.08,0.799-0.16v2.12c-0.559,0.12-0.959,0.16-1.639,0.16c-2.561,0-2.96-1.44-2.96-3.6h-0.08   c-1.76,2.68-3.56,4.2-7.519,4.2c-3.799,0-6.919-1.88-6.919-6.039c0-5.799,5.64-5.999,11.078-6.639   c2.079-0.24,3.239-0.52,3.239-2.799c0-3.399-2.439-4.239-5.398-4.239c-3.12,0-5.439,1.439-5.52,4.799H1747.344z M1760.781,621.517   h-0.08c-0.32,0.6-1.439,0.8-2.119,0.92c-4.279,0.76-9.599,0.72-9.599,4.759c0,2.52,2.239,4.08,4.599,4.08   c3.84,0,7.239-2.44,7.199-6.479V621.517z"/>
	<path d="M1772.343,612.159h4.199v2.12h-4.199v13.918c0,1.64,0.239,2.6,2.04,2.719c0.72,0,1.439-0.04,2.159-0.12v2.16   c-0.76,0-1.479,0.08-2.239,0.08c-3.359,0-4.52-1.12-4.479-4.639v-14.118h-3.6v-2.12h3.6v-6.199h2.52V612.159z"/>
	<path d="M1779.943,618.478c0.24-4.839,3.639-6.919,8.358-6.919c3.64,0,7.599,1.12,7.599,6.639v10.958c0,0.959,0.48,1.52,1.48,1.52   c0.279,0,0.6-0.08,0.799-0.16v2.12c-0.559,0.12-0.959,0.16-1.639,0.16c-2.561,0-2.96-1.44-2.96-3.6h-0.08   c-1.76,2.68-3.56,4.2-7.519,4.2c-3.799,0-6.919-1.88-6.919-6.039c0-5.799,5.64-5.999,11.078-6.639   c2.079-0.24,3.239-0.52,3.239-2.799c0-3.399-2.439-4.239-5.398-4.239c-3.12,0-5.439,1.439-5.52,4.799H1779.943z M1793.381,621.517   h-0.08c-0.32,0.6-1.439,0.8-2.119,0.92c-4.279,0.76-9.599,0.72-9.599,4.759c0,2.52,2.239,4.08,4.599,4.08   c3.84,0,7.239-2.44,7.199-6.479V621.517z"/>
</g>
<polygon fill="#E6E7E8" stroke="#000000" stroke-width="3" points="1723.24,386.082 1723.24,551.957 1531.19,551.957 1531.19,316.207 1653.36,316.207"/>
<polyline fill="#E6E7E8" stroke="#000000" stroke-width="3" points="1723.24,386.082 1653.36,386.082 1653.36,316.207"/>
<line fill="#E6E7E8" stroke="#000000" stroke-width="2" x1="1558.787" y1="519.756" x2="1695.637" y2="519.756"/>
<line fill="#E6E7E8" stroke="#000000" stroke-width="2" x1="1558.787" y1="485.256" x2="1695.637" y2="485.256"/>
<line fill="#E6E7E8" stroke="#000000" stroke-width="2" x1="1558.787" y1="450.756" x2="1695.637" y2="450.756"/>
<line fill="#E6E7E8" stroke="#000000" stroke-width="2" x1="1558.787" y1="416.256" x2="1695.637" y2="416.256"/>
<line fill="#E6E7E8" stroke="#000000" stroke-width="2" x1="1558.787" y1="381.756" x2="1627.021" y2="381.756"/>
<line fill="#E6E7E8" stroke="#000000" stroke-width="2" x1="1558.787" y1="347.256" x2="1627.021" y2="347.256"/>
<polygon fill="#FFFFFF" stroke="#000000" stroke-width="3" points="1628.38,578.236 1592.83,473.987 1557.27,578.236 1592.83,553.113"/>
<polygon fill="#FFFFFF" stroke="#000000" stroke-width="3" points="1592.83,456.483 1598.49,468.327 1607.69,458.963 1609.19,472.001 1620.94,466.131 1618.13,478.954 1631.14,477.215 1624.32,488.43 1637.19,491.011 1627.1,499.405 1638.43,506.022 1626.16,510.686 1634.73,520.626 1621.62,521.053 1626.49,533.238 1613.95,529.38 1614.61,542.489 1603.99,534.768 1600.36,547.379 1592.83,536.631 1585.3,547.379 1581.66,534.768 1571.05,542.489 1571.71,529.38 1559.16,533.238 1564.04,521.05 1550.92,520.626 1559.49,510.686 1547.22,506.022 1558.56,499.405 1548.47,491.011 1561.34,488.43 1554.52,477.215 1567.53,478.954 1564.72,466.131 1576.46,472.001 1577.97,458.963 1587.17,468.327"/>
<line fill="none" stroke="#000000" stroke-width="6" x1="1410.302" y1="630.991" x2="1317.112" y2="724.181"/>
<line fill="none" stroke="#000000" stroke-width="6" x1="1937.312" y1="724.181" x2="1844.122" y2="630.991"/>
<g>
	<path d="M1271.915,1121.97h2.38v10.851h14.842v-10.851h2.38v24.992h-2.38v-12.111h-14.842v12.111h-2.38V1121.97z"/>
	<path d="M1295.925,1134.431c0.21-4.235,3.185-6.056,7.315-6.056c3.186,0,6.65,0.98,6.65,5.811v9.591c0,0.84,0.42,1.33,1.295,1.33   c0.245,0,0.525-0.069,0.7-0.14v1.855c-0.489,0.104-0.84,0.14-1.435,0.14c-2.24,0-2.591-1.26-2.591-3.15h-0.069   c-1.541,2.346-3.115,3.676-6.581,3.676c-3.325,0-6.056-1.646-6.056-5.286c0-5.075,4.936-5.25,9.696-5.811   c1.82-0.21,2.835-0.455,2.835-2.45c0-2.976-2.135-3.71-4.726-3.71c-2.73,0-4.761,1.26-4.83,4.2H1295.925z M1307.686,1137.091h-0.07   c-0.279,0.525-1.26,0.7-1.854,0.805c-3.746,0.666-8.401,0.631-8.401,4.166c0,2.205,1.96,3.57,4.025,3.57   c3.36,0,6.336-2.136,6.301-5.671V1137.091z"/>
	<path d="M1325.115,1134.186c-0.104-2.73-2.205-3.955-4.726-3.955c-1.96,0-4.271,0.77-4.271,3.115c0,1.96,2.24,2.66,3.746,3.045   l2.94,0.665c2.52,0.385,5.146,1.855,5.146,5.006c0,3.92-3.886,5.426-7.246,5.426c-4.2,0-7.07-1.961-7.421-6.371h2.205   c0.176,2.976,2.381,4.516,5.321,4.516c2.064,0,4.936-0.91,4.936-3.431c0-2.1-1.961-2.8-3.956-3.29l-2.835-0.63   c-2.87-0.771-5.041-1.75-5.041-4.831c0-3.675,3.605-5.075,6.791-5.075c3.605,0,6.476,1.891,6.615,5.811H1325.115z"/>
	<path d="M1331.1,1121.97h2.205v10.046h0.07c0.805-2.171,3.22-3.641,5.775-3.641c5.075,0,6.615,2.66,6.615,6.966v11.621h-2.205   v-11.271c0-3.115-1.015-5.46-4.585-5.46c-3.501,0-5.601,2.66-5.671,6.195v10.536h-2.205V1121.97z"/>
	<path d="M1257.724,1172.755h-3.571v16.207h-2.205v-16.207h-3.08v-1.854h3.08v-1.646c-0.035-3.115,0.841-5.285,4.376-5.285   c0.63,0,1.155,0.034,1.854,0.14v1.89c-0.595-0.104-1.085-0.175-1.609-0.175c-2.45,0-2.381,1.54-2.416,3.501v1.575h3.571V1172.755z"/>
	<path d="M1274.453,1188.962h-2.03v-3.255h-0.069c-1.155,2.415-3.536,3.78-6.23,3.78c-4.551,0-6.336-2.66-6.336-6.861V1170.9h2.205   v11.761c0.104,3.256,1.33,4.971,4.83,4.971c3.781,0,5.426-3.57,5.426-7.246v-9.485h2.205V1188.962z"/>
	<path d="M1278.582,1170.9h2.205v3.115h0.07c0.805-2.171,3.22-3.641,5.775-3.641c5.075,0,6.615,2.66,6.615,6.966v11.621h-2.205   v-11.271c0-3.115-1.015-5.46-4.585-5.46c-3.501,0-5.601,2.66-5.671,6.195v10.536h-2.205V1170.9z"/>
	<path d="M1310.152,1176.57c-0.596-2.695-2.24-4.34-5.11-4.34c-4.236,0-6.336,3.851-6.336,7.7c0,3.851,2.1,7.701,6.336,7.701   c2.729,0,4.97-2.136,5.25-5.146h2.205c-0.595,4.341-3.43,7.001-7.455,7.001c-5.531,0-8.541-4.376-8.541-9.557   s3.01-9.556,8.541-9.556c3.85,0,6.825,2.065,7.315,6.195H1310.152z"/>
	<path d="M1319.076,1170.9h3.676v1.854h-3.676v12.182c0,1.436,0.21,2.275,1.785,2.38c0.63,0,1.26-0.034,1.891-0.104v1.89   c-0.665,0-1.296,0.07-1.961,0.07c-2.94,0-3.955-0.98-3.92-4.061v-12.356h-3.15v-1.854h3.15v-5.426h2.205V1170.9z"/>
	<path d="M1325.971,1163.97h2.206v3.535h-2.206V1163.97z M1325.971,1170.9h2.206v18.062h-2.206V1170.9z"/>
	<path d="M1348.582,1179.931c0,5.181-3.01,9.557-8.54,9.557c-5.531,0-8.541-4.376-8.541-9.557s3.01-9.556,8.541-9.556   C1345.572,1170.375,1348.582,1174.75,1348.582,1179.931z M1333.706,1179.931c0,3.851,2.1,7.701,6.336,7.701   c4.235,0,6.335-3.851,6.335-7.701c0-3.85-2.1-7.7-6.335-7.7C1335.806,1172.23,1333.706,1176.081,1333.706,1179.931z"/>
	<path d="M1351.836,1170.9h2.205v3.115h0.07c0.805-2.171,3.22-3.641,5.775-3.641c5.075,0,6.615,2.66,6.615,6.966v11.621h-2.205   v-11.271c0-3.115-1.015-5.46-4.585-5.46c-3.501,0-5.601,2.66-5.671,6.195v10.536h-2.205V1170.9z"/>
</g>
<g>
	<path d="M1677.515,1371.277h-100.599v-10.6h100.599V1371.277z M1677.515,1410.677h-100.599v-10.6h100.599V1410.677z"/>
</g>
<g>
	<path d="M1613.735,1301.817c-0.12-8.22,5.04-14.399,13.439-14.399c7.38,0,12.659,4.38,12.659,12c0,4.92-2.52,7.68-5.159,10.199   c-2.58,2.46-5.22,4.8-5.22,8.88v2.34h-5.1v-2.82c0-4.92,2.999-7.619,5.399-10.02c2.34-2.34,4.979-4.619,4.68-9.06   c-0.3-4.38-3-7.02-7.26-7.02c-5.7,0-8.399,4.38-8.34,9.899H1613.735z M1623.515,1324.616h6.66v6.66h-6.66V1324.616z"/>
</g>
<g>
	<path d="M379.348,209.218c-0.24,11.76,8.24,15.36,18.641,15.36c6,0,15.12-3.28,15.12-11.601c0-6.48-6.48-9.04-11.761-10.32   l-12.72-3.12c-6.721-1.68-12.881-4.88-12.881-13.76c0-5.601,3.601-16.081,19.681-16.081c11.28,0,21.2,6.08,21.121,17.76h-5.44   c-0.32-8.72-7.521-13.12-15.601-13.12c-7.44,0-14.32,2.88-14.32,11.36c0,5.36,4,7.6,8.641,8.72l13.92,3.44   c8.08,2.16,14.801,5.68,14.801,15.041c0,3.92-1.601,16.32-21.841,16.32c-13.521,0-23.44-6.08-22.801-20H379.348z"/>
	<path d="M426.307,170.897h5.04v8.08h-5.04V170.897z M426.307,186.737h5.04v41.281h-5.04V186.737z"/>
	<path d="M475.907,224.658c-0.08,12.32-4.8,19.84-18.32,19.84c-8.24,0-16.4-3.68-17.12-12.48h5.04c1.12,6.08,6.48,8.24,12.08,8.24   c9.28,0,13.28-5.52,13.28-15.6v-5.601h-0.16c-2.319,5.041-7.2,8.48-13.12,8.48c-13.2,0-18.641-9.44-18.641-21.201   c0-11.36,6.721-20.8,18.641-20.8c6,0,11.12,3.76,13.12,8.32h0.16v-7.12h5.04V224.658z M470.867,206.897   c0-8.08-3.76-17.12-13.28-17.12c-9.6,0-13.601,8.56-13.601,17.12c0,8.32,4.32,16.4,13.601,16.4   C466.308,223.298,470.867,215.298,470.867,206.897z"/>
	<path d="M485.426,186.737h5.04v7.12h0.16c1.841-4.96,7.36-8.32,13.2-8.32c11.601,0,15.121,6.08,15.121,15.92v26.561h-5.04v-25.761   c0-7.12-2.32-12.48-10.48-12.48c-8,0-12.801,6.08-12.961,14.16v24.081h-5.04V186.737z"/>
	<path d="M528.545,170.897h5.04v8.08h-5.04V170.897z M528.545,186.737h5.04v41.281h-5.04V186.737z"/>
	<path d="M543.185,186.737h5.04v7.12h0.16c1.841-4.96,7.36-8.32,13.2-8.32c11.601,0,15.121,6.08,15.121,15.92v26.561h-5.04v-25.761   c0-7.12-2.32-12.48-10.48-12.48c-8,0-12.801,6.08-12.961,14.16v24.081h-5.04V186.737z"/>
	<path d="M621.104,224.658c-0.08,12.32-4.8,19.84-18.32,19.84c-8.24,0-16.4-3.68-17.12-12.48h5.04c1.12,6.08,6.48,8.24,12.08,8.24   c9.28,0,13.28-5.52,13.28-15.6v-5.601h-0.16c-2.319,5.041-7.2,8.48-13.12,8.48c-13.2,0-18.641-9.44-18.641-21.201   c0-11.36,6.721-20.8,18.641-20.8c6,0,11.12,3.76,13.12,8.32h0.16v-7.12h5.04V224.658z M616.064,206.897   c0-8.08-3.76-17.12-13.28-17.12c-9.6,0-13.601,8.56-13.601,17.12c0,8.32,4.32,16.4,13.601,16.4   C611.505,223.298,616.064,215.298,616.064,206.897z"/>
</g>
<g>
	<path d="M1441.944,170.897h5.84l18.561,51.121h0.16l18.4-51.121h5.76l-21.2,57.121h-6.32L1441.944,170.897z"/>
	<path d="M1493.304,208.738c0.08,7.36,3.921,16.24,13.601,16.24c7.36,0,11.36-4.32,12.96-10.56h5.041   c-2.16,9.36-7.601,14.8-18.001,14.8c-13.12,0-18.641-10.081-18.641-21.841c0-10.88,5.521-21.84,18.641-21.84   c13.28,0,18.561,11.6,18.16,23.201H1493.304z M1520.024,204.498c-0.239-7.6-4.96-14.72-13.12-14.72c-8.24,0-12.8,7.2-13.601,14.72   H1520.024z"/>
	<path d="M1531.863,186.737h4.641v9.68h0.16c2.56-6.64,8.16-10.561,15.6-10.24v5.04c-9.12-0.48-15.36,6.24-15.36,14.8v22h-5.04   V186.737z"/>
	<path d="M1557.143,170.897h5.04v8.08h-5.04V170.897z M1557.143,186.737h5.04v41.281h-5.04V186.737z"/>
	<path d="M1587.782,190.977h-8.16v37.041h-5.04v-37.041h-7.04v-4.24h7.04v-3.76c-0.08-7.12,1.92-12.08,10-12.08   c1.439,0,2.64,0.08,4.24,0.32v4.32c-1.36-0.24-2.48-0.4-3.681-0.4c-5.6,0-5.439,3.52-5.52,8v3.6h8.16V190.977z"/>
	<path d="M1592.661,170.897h5.04v8.08h-5.04V170.897z M1592.661,186.737h5.04v41.281h-5.04V186.737z"/>
	<path d="M1636.502,199.697c-1.36-6.16-5.12-9.92-11.681-9.92c-9.68,0-14.48,8.8-14.48,17.6s4.801,17.601,14.48,17.601   c6.24,0,11.36-4.88,12.001-11.76h5.04c-1.36,9.92-7.841,16-17.041,16c-12.64,0-19.521-10-19.521-21.841s6.881-21.84,19.521-21.84   c8.801,0,15.601,4.72,16.721,14.16H1636.502z"/>
	<path d="M1648.421,199.377c0.479-9.68,7.28-13.84,16.72-13.84c7.28,0,15.201,2.24,15.201,13.28v21.92c0,1.92,0.96,3.04,2.96,3.04   c0.56,0,1.2-0.16,1.6-0.32v4.24c-1.12,0.24-1.92,0.32-3.28,0.32c-5.12,0-5.92-2.88-5.92-7.2h-0.16c-3.52,5.36-7.12,8.4-15.04,8.4   c-7.601,0-13.84-3.76-13.84-12.081c0-11.6,11.279-12,22.16-13.28c4.16-0.48,6.48-1.04,6.48-5.6c0-6.8-4.881-8.48-10.801-8.48   c-6.24,0-10.88,2.88-11.04,9.6H1648.421z M1675.302,205.458h-0.16c-0.641,1.2-2.881,1.6-4.24,1.84   c-8.561,1.52-19.2,1.44-19.2,9.521c0,5.04,4.479,8.16,9.2,8.16c7.68,0,14.479-4.88,14.4-12.96V205.458z"/>
	<path d="M1698.421,186.737h8.399v4.24h-8.399v27.841c0,3.28,0.479,5.2,4.08,5.44c1.439,0,2.88-0.08,4.319-0.24v4.32   c-1.52,0-2.96,0.16-4.479,0.16c-6.721,0-9.041-2.24-8.961-9.28v-28.241h-7.2v-4.24h7.2v-12.4h5.041V186.737z"/>
	<path d="M1714.18,170.897h5.04v8.08h-5.04V170.897z M1714.18,186.737h5.04v41.281h-5.04V186.737z"/>
	<path d="M1765.86,207.377c0,11.84-6.88,21.841-19.521,21.841c-12.64,0-19.521-10-19.521-21.841s6.881-21.84,19.521-21.84   C1758.98,185.537,1765.86,195.537,1765.86,207.377z M1731.859,207.377c0,8.8,4.801,17.601,14.48,17.601   c9.681,0,14.48-8.8,14.48-17.601s-4.8-17.6-14.48-17.6C1736.66,189.777,1731.859,198.577,1731.859,207.377z"/>
	<path d="M1773.299,186.737h5.04v7.12h0.16c1.841-4.96,7.36-8.32,13.2-8.32c11.601,0,15.121,6.08,15.121,15.92v26.561h-5.04v-25.761   c0-7.12-2.32-12.48-10.48-12.48c-8,0-12.801,6.08-12.961,14.16v24.081h-5.04V186.737z"/>
</g>
<line fill="none" stroke="#000000" stroke-width="2" x1="1044.115" y1="0" x2="1044.115" y2="1962.196"/>
<g>
	<path d="M1245.66,1591.606h2.72v28.556h-2.72V1591.606z"/>
	<path d="M1261.819,1601.646h-4.079v18.517h-2.52v-18.517h-3.52v-2.12h3.52v-1.88c-0.04-3.559,0.959-6.039,4.999-6.039   c0.72,0,1.319,0.04,2.119,0.16v2.16c-0.68-0.12-1.239-0.2-1.84-0.2c-2.799,0-2.719,1.76-2.759,3.999v1.8h4.079V1601.646z"/>
	<path d="M1279.338,1599.525h4.2v2.12h-4.2v13.917c0,1.64,0.24,2.6,2.04,2.72c0.72,0,1.439-0.04,2.16-0.12v2.16   c-0.761,0-1.48,0.08-2.24,0.08c-3.359,0-4.519-1.12-4.479-4.64v-14.117h-3.599v-2.12h3.599v-6.199h2.52V1599.525z"/>
	<path d="M1287.139,1591.606h2.52v11.479h0.08c0.92-2.479,3.68-4.159,6.599-4.159c5.8,0,7.56,3.039,7.56,7.959v13.277h-2.52v-12.878   c0-3.56-1.16-6.239-5.239-6.239c-4,0-6.399,3.04-6.479,7.079v12.038h-2.52V1591.606z"/>
	<path d="M1310.138,1610.523c0.04,3.68,1.96,8.119,6.799,8.119c3.68,0,5.68-2.16,6.479-5.279h2.52   c-1.08,4.679-3.8,7.398-8.999,7.398c-6.559,0-9.318-5.039-9.318-10.918c0-5.439,2.76-10.918,9.318-10.918   c6.64,0,9.279,5.799,9.079,11.598H1310.138z M1323.496,1608.404c-0.12-3.8-2.479-7.359-6.56-7.359c-4.119,0-6.398,3.6-6.799,7.359   H1323.496z"/>
	<path d="M1340.498,1591.606h2.52v11.479h0.08c0.92-2.479,3.68-4.159,6.599-4.159c5.8,0,7.56,3.039,7.56,7.959v13.277h-2.52v-12.878   c0-3.56-1.16-6.239-5.239-6.239c-4,0-6.399,3.04-6.479,7.079v12.038h-2.52V1591.606z"/>
	<path d="M1361.777,1605.845c0.24-4.84,3.64-6.919,8.359-6.919c3.639,0,7.599,1.12,7.599,6.639v10.958c0,0.96,0.479,1.52,1.479,1.52   c0.28,0,0.6-0.079,0.8-0.159v2.119c-0.56,0.12-0.96,0.16-1.64,0.16c-2.56,0-2.96-1.439-2.96-3.6h-0.079   c-1.76,2.68-3.56,4.199-7.52,4.199c-3.799,0-6.918-1.88-6.918-6.039c0-5.799,5.639-5.999,11.078-6.639   c2.079-0.24,3.239-0.52,3.239-2.8c0-3.399-2.439-4.239-5.399-4.239c-3.119,0-5.439,1.44-5.519,4.8H1361.777z M1375.216,1608.884   h-0.08c-0.32,0.601-1.44,0.8-2.12,0.92c-4.279,0.76-9.598,0.72-9.598,4.76c0,2.52,2.239,4.079,4.599,4.079   c3.84,0,7.239-2.439,7.199-6.479V1608.884z"/>
	<path d="M1395.136,1605.564c-0.12-3.119-2.52-4.52-5.399-4.52c-2.239,0-4.879,0.88-4.879,3.56c0,2.24,2.56,3.04,4.279,3.479   l3.359,0.76c2.879,0.44,5.879,2.12,5.879,5.72c0,4.479-4.439,6.198-8.278,6.198c-4.8,0-8.079-2.239-8.479-7.278h2.52   c0.199,3.399,2.719,5.159,6.078,5.159c2.36,0,5.64-1.04,5.64-3.92c0-2.399-2.24-3.199-4.52-3.759l-3.239-0.72   c-3.279-0.88-5.759-2-5.759-5.52c0-4.199,4.119-5.799,7.759-5.799c4.119,0,7.398,2.159,7.559,6.639H1395.136z"/>
	<path d="M1401.978,1591.606h2.52v11.479h0.08c0.92-2.479,3.68-4.159,6.599-4.159c5.8,0,7.56,3.039,7.56,7.959v13.277h-2.52v-12.878   c0-3.56-1.16-6.239-5.239-6.239c-4,0-6.399,3.04-6.479,7.079v12.038h-2.52V1591.606z"/>
	<path d="M1424.977,1610.523c0.04,3.68,1.96,8.119,6.799,8.119c3.68,0,5.68-2.16,6.479-5.279h2.52   c-1.08,4.679-3.8,7.398-8.999,7.398c-6.559,0-9.318-5.039-9.318-10.918c0-5.439,2.76-10.918,9.318-10.918   c6.64,0,9.279,5.799,9.079,11.598H1424.977z M1438.335,1608.404c-0.12-3.8-2.479-7.359-6.56-7.359c-4.119,0-6.398,3.6-6.799,7.359   H1438.335z"/>
	<path d="M1456.615,1605.564c-0.12-3.119-2.52-4.52-5.399-4.52c-2.239,0-4.879,0.88-4.879,3.56c0,2.24,2.56,3.04,4.279,3.479   l3.359,0.76c2.879,0.44,5.879,2.12,5.879,5.72c0,4.479-4.439,6.198-8.278,6.198c-4.8,0-8.079-2.239-8.479-7.278h2.52   c0.199,3.399,2.719,5.159,6.078,5.159c2.36,0,5.64-1.04,5.64-3.92c0-2.399-2.24-3.199-4.52-3.759l-3.239-0.72   c-3.279-0.88-5.759-2-5.759-5.52c0-4.199,4.119-5.799,7.759-5.799c4.119,0,7.398,2.159,7.559,6.639H1456.615z"/>
	<path d="M1474.376,1605.845c0.24-4.84,3.64-6.919,8.359-6.919c3.639,0,7.599,1.12,7.599,6.639v10.958c0,0.96,0.479,1.52,1.479,1.52   c0.28,0,0.6-0.079,0.8-0.159v2.119c-0.56,0.12-0.96,0.16-1.64,0.16c-2.56,0-2.96-1.439-2.96-3.6h-0.079   c-1.76,2.68-3.56,4.199-7.52,4.199c-3.799,0-6.919-1.88-6.919-6.039c0-5.799,5.64-5.999,11.079-6.639   c2.079-0.24,3.239-0.52,3.239-2.8c0-3.399-2.439-4.239-5.399-4.239c-3.119,0-5.439,1.44-5.519,4.8H1474.376z M1487.814,1608.884   h-0.08c-0.32,0.601-1.439,0.8-2.12,0.92c-4.279,0.76-9.598,0.72-9.598,4.76c0,2.52,2.239,4.079,4.599,4.079   c3.84,0,7.239-2.439,7.199-6.479V1608.884z"/>
	<path d="M1495.376,1599.525h2.319v4.84h0.08c1.28-3.32,4.08-5.279,7.799-5.119v2.52c-4.559-0.24-7.679,3.119-7.679,7.398v10.998   h-2.52V1599.525z"/>
	<path d="M1508.735,1610.523c0.04,3.68,1.96,8.119,6.799,8.119c3.68,0,5.68-2.16,6.479-5.279h2.52   c-1.08,4.679-3.8,7.398-8.999,7.398c-6.559,0-9.318-5.039-9.318-10.918c0-5.439,2.76-10.918,9.318-10.918   c6.64,0,9.279,5.799,9.079,11.598H1508.735z M1522.094,1608.404c-0.12-3.8-2.479-7.359-6.56-7.359c-4.119,0-6.398,3.6-6.799,7.359   H1522.094z"/>
	<path d="M1540.615,1610.523c0.04,3.68,1.96,8.119,6.799,8.119c3.68,0,5.68-2.16,6.479-5.279h2.52   c-1.08,4.679-3.8,7.398-8.999,7.398c-6.559,0-9.318-5.039-9.318-10.918c0-5.439,2.76-10.918,9.318-10.918   c6.64,0,9.279,5.799,9.079,11.598H1540.615z M1553.974,1608.404c-0.12-3.8-2.479-7.359-6.56-7.359c-4.119,0-6.398,3.6-6.799,7.359   H1553.974z"/>
	<path d="M1578.053,1627.801h-2.52v-11.558h-0.08c-1.08,2.959-4.079,4.519-7.159,4.519c-6.278,0-9.278-5.079-9.278-10.918   s3-10.918,9.278-10.918c3,0,6.279,1.84,7.359,4.52h0.08v-3.92h2.319V1627.801z M1568.294,1618.643c5.359,0,7.239-4.52,7.239-8.799   s-1.88-8.799-7.239-8.799c-4.799,0-6.759,4.52-6.759,8.799S1563.495,1618.643,1568.294,1618.643z"/>
	<path d="M1599.573,1620.162h-2.32v-3.72h-0.08c-1.319,2.76-4.039,4.319-7.118,4.319c-5.199,0-7.239-3.039-7.239-7.839v-13.397h2.52   v13.438c0.12,3.72,1.521,5.68,5.52,5.68c4.319,0,6.199-4.079,6.199-8.279v-10.838h2.52V1620.162z"/>
	<path d="M1604.095,1605.845c0.24-4.84,3.64-6.919,8.359-6.919c3.639,0,7.599,1.12,7.599,6.639v10.958c0,0.96,0.479,1.52,1.479,1.52   c0.28,0,0.6-0.079,0.8-0.159v2.119c-0.56,0.12-0.96,0.16-1.64,0.16c-2.56,0-2.96-1.439-2.96-3.6h-0.079   c-1.76,2.68-3.56,4.199-7.52,4.199c-3.799,0-6.919-1.88-6.919-6.039c0-5.799,5.64-5.999,11.079-6.639   c2.079-0.24,3.239-0.52,3.239-2.8c0-3.399-2.439-4.239-5.399-4.239c-3.119,0-5.439,1.44-5.519,4.8H1604.095z M1617.533,1608.884   h-0.08c-0.32,0.601-1.439,0.8-2.12,0.92c-4.279,0.76-9.598,0.72-9.598,4.76c0,2.52,2.239,4.079,4.599,4.079   c3.84,0,7.239-2.439,7.199-6.479V1608.884z"/>
	<path d="M1625.135,1591.606h2.52v28.556h-2.52V1591.606z"/>
	<path d="M1637.334,1615.923v4.279c-0.04,2.319-1.12,4.759-3.52,5.439v-1.72c1.319-0.48,1.919-2.44,1.839-3.76h-1.68v-4.239   H1637.334z"/>
	<path d="M1658.734,1599.525h4.199v2.12h-4.199v13.917c0,1.64,0.239,2.6,2.039,2.72c0.72,0,1.439-0.04,2.16-0.12v2.16   c-0.761,0-1.48,0.08-2.24,0.08c-3.359,0-4.52-1.12-4.479-4.64v-14.117h-3.599v-2.12h3.599v-6.199h2.521V1599.525z"/>
	<path d="M1666.534,1591.606h2.52v11.479h0.08c0.92-2.479,3.68-4.159,6.599-4.159c5.8,0,7.56,3.039,7.56,7.959v13.277h-2.52v-12.878   c0-3.56-1.16-6.239-5.239-6.239c-4,0-6.399,3.04-6.479,7.079v12.038h-2.52V1591.606z"/>
	<path d="M1689.533,1610.523c0.04,3.68,1.96,8.119,6.799,8.119c3.68,0,5.68-2.16,6.479-5.279h2.52   c-1.08,4.679-3.8,7.398-8.999,7.398c-6.559,0-9.318-5.039-9.318-10.918c0-5.439,2.76-10.918,9.318-10.918   c6.64,0,9.279,5.799,9.079,11.598H1689.533z M1702.892,1608.404c-0.12-3.8-2.479-7.359-6.56-7.359c-4.119,0-6.398,3.6-6.799,7.359   H1702.892z"/>
	<path d="M1732.292,1605.564c-0.12-3.119-2.52-4.52-5.399-4.52c-2.239,0-4.879,0.88-4.879,3.56c0,2.24,2.56,3.04,4.279,3.479   l3.359,0.76c2.879,0.44,5.879,2.12,5.879,5.72c0,4.479-4.439,6.198-8.278,6.198c-4.8,0-8.079-2.239-8.479-7.278h2.52   c0.199,3.399,2.719,5.159,6.078,5.159c2.36,0,5.64-1.04,5.64-3.92c0-2.399-2.24-3.199-4.52-3.759l-3.239-0.72   c-3.279-0.88-5.759-2-5.759-5.52c0-4.199,4.119-5.799,7.759-5.799c4.119,0,7.398,2.159,7.559,6.639H1732.292z"/>
	<path d="M1739.213,1591.606h2.52v4.04h-2.52V1591.606z M1739.213,1599.525h2.52v20.637h-2.52V1599.525z"/>
	<path d="M1764.011,1618.482c-0.04,6.159-2.399,9.918-9.159,9.918c-4.119,0-8.198-1.839-8.558-6.238h2.52   c0.56,3.039,3.239,4.119,6.038,4.119c4.64,0,6.64-2.76,6.64-7.799v-2.8h-0.08c-1.16,2.52-3.6,4.239-6.56,4.239   c-6.599,0-9.318-4.719-9.318-10.598c0-5.68,3.359-10.398,9.318-10.398c3,0,5.56,1.88,6.56,4.159h0.08v-3.56h2.52V1618.482z    M1761.491,1609.604c0-4.039-1.88-8.559-6.64-8.559c-4.799,0-6.799,4.279-6.799,8.559c0,4.159,2.16,8.199,6.799,8.199   C1759.211,1617.803,1761.491,1613.803,1761.491,1609.604z"/>
	<path d="M1768.772,1599.525h2.52v3.56h0.08c0.92-2.479,3.68-4.159,6.599-4.159c5.8,0,7.56,3.039,7.56,7.959v13.277h-2.52v-12.878   c0-3.56-1.16-6.239-5.239-6.239c-4,0-6.399,3.04-6.479,7.079v12.038h-2.52V1599.525z"/>
	<path d="M1790.052,1605.845c0.24-4.84,3.64-6.919,8.359-6.919c3.639,0,7.599,1.12,7.599,6.639v10.958c0,0.96,0.479,1.52,1.479,1.52   c0.28,0,0.6-0.079,0.8-0.159v2.119c-0.56,0.12-0.96,0.16-1.64,0.16c-2.56,0-2.96-1.439-2.96-3.6h-0.079   c-1.76,2.68-3.56,4.199-7.52,4.199c-3.799,0-6.919-1.88-6.919-6.039c0-5.799,5.64-5.999,11.079-6.639   c2.079-0.24,3.239-0.52,3.239-2.8c0-3.399-2.439-4.239-5.399-4.239c-3.119,0-5.439,1.44-5.519,4.8H1790.052z M1803.49,1608.884   h-0.08c-0.32,0.601-1.439,0.8-2.12,0.92c-4.279,0.76-9.598,0.72-9.598,4.76c0,2.52,2.239,4.079,4.599,4.079   c3.84,0,7.239-2.439,7.199-6.479V1608.884z"/>
	<path d="M1815.051,1599.525h4.2v2.12h-4.2v13.917c0,1.64,0.24,2.6,2.04,2.72c0.72,0,1.439-0.04,2.16-0.12v2.16   c-0.761,0-1.48,0.08-2.24,0.08c-3.359,0-4.519-1.12-4.479-4.64v-14.117h-3.599v-2.12h3.599v-6.199h2.52V1599.525z"/>
	<path d="M1839.609,1620.162h-2.32v-3.72h-0.08c-1.319,2.76-4.039,4.319-7.118,4.319c-5.199,0-7.239-3.039-7.239-7.839v-13.397h2.52   v13.438c0.12,3.72,1.52,5.68,5.52,5.68c4.319,0,6.199-4.079,6.199-8.279v-10.838h2.52V1620.162z"/>
	<path d="M1844.371,1599.525h2.319v4.84h0.08c1.28-3.32,4.08-5.279,7.799-5.119v2.52c-4.559-0.24-7.679,3.119-7.679,7.398v10.998   h-2.52V1599.525z"/>
	<path d="M1857.73,1610.523c0.04,3.68,1.96,8.119,6.799,8.119c3.68,0,5.68-2.16,6.479-5.279h2.52c-1.08,4.679-3.8,7.398-8.999,7.398   c-6.559,0-9.318-5.039-9.318-10.918c0-5.439,2.76-10.918,9.318-10.918c6.64,0,9.279,5.799,9.079,11.598H1857.73z    M1871.089,1608.404c-0.12-3.8-2.479-7.359-6.56-7.359c-4.119,0-6.398,3.6-6.799,7.359H1871.089z"/>
	<path d="M1888.171,1591.606h2.52v4.04h-2.52V1591.606z M1888.171,1599.525h2.52v20.637h-2.52V1599.525z"/>
	<path d="M1907.89,1605.564c-0.12-3.119-2.52-4.52-5.399-4.52c-2.239,0-4.879,0.88-4.879,3.56c0,2.24,2.56,3.04,4.279,3.479   l3.359,0.76c2.879,0.44,5.879,2.12,5.879,5.72c0,4.479-4.439,6.198-8.278,6.198c-4.8,0-8.079-2.239-8.479-7.278h2.52   c0.199,3.399,2.719,5.159,6.078,5.159c2.36,0,5.64-1.04,5.64-3.92c0-2.399-2.24-3.199-4.52-3.759l-3.239-0.72   c-3.279-0.88-5.759-2-5.759-5.52c0-4.199,4.119-5.799,7.759-5.799c4.119,0,7.398,2.159,7.559,6.639H1907.89z"/>
	<path d="M1923.571,1599.525h2.8l6.479,18.117h0.08l6.398-18.117h2.6l-7.719,20.637h-2.679L1923.571,1599.525z"/>
	<path d="M1944.17,1605.845c0.24-4.84,3.64-6.919,8.359-6.919c3.639,0,7.599,1.12,7.599,6.639v10.958c0,0.96,0.479,1.52,1.479,1.52   c0.28,0,0.6-0.079,0.8-0.159v2.119c-0.56,0.12-0.96,0.16-1.64,0.16c-2.56,0-2.96-1.439-2.96-3.6h-0.079   c-1.76,2.68-3.56,4.199-7.52,4.199c-3.799,0-6.918-1.88-6.918-6.039c0-5.799,5.639-5.999,11.078-6.639   c2.079-0.24,3.239-0.52,3.239-2.8c0-3.399-2.439-4.239-5.399-4.239c-3.119,0-5.439,1.44-5.519,4.8H1944.17z M1957.608,1608.884   h-0.08c-0.32,0.601-1.44,0.8-2.12,0.92c-4.279,0.76-9.598,0.72-9.598,4.76c0,2.52,2.239,4.079,4.599,4.079   c3.84,0,7.239-2.439,7.199-6.479V1608.884z"/>
	<path d="M1965.21,1591.606h2.52v28.556h-2.52V1591.606z"/>
	<path d="M1972.61,1591.606h2.52v4.04h-2.52V1591.606z M1972.61,1599.525h2.52v20.637h-2.52V1599.525z"/>
	<path d="M1998.127,1620.162h-2.319v-3.919h-0.08c-1.08,2.679-4.359,4.519-7.359,4.519c-6.278,0-9.278-5.079-9.278-10.918   s3-10.918,9.278-10.918c3.08,0,6.079,1.56,7.159,4.52h0.08v-11.839h2.52V1620.162z M1988.368,1618.643   c5.359,0,7.239-4.52,7.239-8.799s-1.88-8.799-7.239-8.799c-4.799,0-6.759,4.52-6.759,8.799S1983.569,1618.643,1988.368,1618.643z"/>
	<path d="M2004.409,1620.162v-4.239h3.36v4.239H2004.409z"/>
</g>
</svg>