<?xml version="1.0" encoding="UTF-8" standalone="no"?>
<!-- Generator: Adobe Illustrator 13.0.2, SVG Export Plug-In . SVG Version: 6.00 Build 14948)  -->
<svg xmlns:dc="http://purl.org/dc/elements/1.1/" xmlns:cc="http://creativecommons.org/ns#" xmlns:rdf="http://www.w3.org/1999/02/22-rdf-syntax-ns#" xmlns:svg="http://www.w3.org/2000/svg" xmlns="http://www.w3.org/2000/svg" xmlns:sodipodi="http://sodipodi.sourceforge.net/DTD/sodipodi-0.dtd" xmlns:inkscape="http://www.inkscape.org/namespaces/inkscape" version="1.0" id="svg2358" inkscape:output_extension="org.inkscape.output.svg.inkscape" sodipodi:version="0.32" sodipodi:docname="MD4.svg" inkscape:version="0.46" x="0px" y="0px" width="800px" height="879px" viewBox="0 0 800 879" enable-background="new 0 0 800 879" xml:space="preserve"><metadata id="metadata64"><rdf:RDF><cc:Work rdf:about=""><dc:format>image/svg+xml</dc:format><dc:type rdf:resource="http://purl.org/dc/dcmitype/StillImage"/></cc:Work></rdf:RDF></metadata>
<defs id="defs3">
	
	
		<inkscape:perspective id="perspective80" inkscape:persp3d-origin="400 : 293 : 1" inkscape:vp_z="800 : 439.5 : 1" inkscape:vp_y="0 : 1000 : 0" inkscape:vp_x="0 : 439.5 : 1" sodipodi:type="inkscape:persp3d">
		</inkscape:perspective>
</defs>
<sodipodi:namedview id="base" inkscape:current-layer="svg2358" inkscape:window-y="52" inkscape:window-x="0" inkscape:pageopacity="0.0" inkscape:pageshadow="2" inkscape:window-width="1280" inkscape:window-height="938" inkscape:cy="439.5" inkscape:cx="400" inkscape:zoom="0.52559727" showborder="true" showgrid="false" pagecolor="#ffffff" bordercolor="#666666" borderopacity="1.0" objecttolerance="10.0" gridtolerance="10.0" guidetolerance="10.0">
	</sodipodi:namedview>
<path id="path5438" fill="none" stroke="#000000" stroke-width="3" d="M131.133,392.992V339.34"/>
<path id="path5442" fill="none" stroke="#000000" stroke-width="3" d="M131.133,629.597V553.34"/>
<rect id="rect13263" x="77.61" y="516.603" fill="#FFE651" stroke="#000000" stroke-width="3" stroke-linecap="square" width="104.643" height="62.495"/>
<path id="path8380" fill="none" stroke="#000000" stroke-width="3" d="M185.396,235.214h42.751"/>
<rect id="rect3375" x="223.819" y="194.244" fill="#ADD836" stroke="#000000" stroke-width="3" stroke-linecap="square" width="85.458" height="85.458"/>
<path id="path4461" fill="none" stroke="#000000" stroke-width="3" d="M131.133,182.597v-57.14"/>
<rect id="rect4352" x="46.863" y="47.764" fill="#A1D6FF" stroke="#000000" stroke-width="3" stroke-linecap="square" width="188.272" height="83.86"/>
<path id="path5433" fill="none" stroke="#000000" stroke-width="3" d="M131.133,288.597V241.34"/>
<path id="path2372" fill="#FFFFFF" stroke="#FF0000" stroke-width="4.3792" stroke-linecap="square" d="M100.569,204.413h61.067  v61.385h-61.067V204.413L100.569,204.413z M100.557,235.241h59.93 M131.241,208.564v53.082"/>
<path id="path2398" fill="#FFFFFF" stroke="#FF0000" stroke-width="4.3792" stroke-linecap="square" d="M100.569,308.413h61.067  v61.385h-61.067V308.413L100.569,308.413z M100.557,339.241h59.93 M131.241,312.564v53.082"/>
<path id="path5440" fill="none" stroke="#000000" stroke-width="3" d="M131.133,495.829V443.34"/>
<path id="path2400" fill="#FFFFFF" stroke="#FF0000" stroke-width="4.3792" stroke-linecap="square" d="M100.569,413.59h61.067  v61.385h-61.067V413.59L100.569,413.59z M100.557,444.419h59.93 M131.241,417.742v53.082"/>
<path id="path5444" fill="none" stroke="#000000" stroke-width="3" d="M131.133,582.34v50.689l187.04,78.268v33.512"/>
<text id="text16" transform="matrix(1, 0, 0, 1, 251.724, 249.954)" font-family="'Arial-ItalicMT'" font-size="48">F</text>

<text id="text18" transform="matrix(1, 0, 0, 1, 125.789, 103.67)" font-family="'ArialMT'" font-size="48">A</text>

<path id="path5458" fill="none" stroke="#000000" stroke-width="3" d="M380.656,124.224v527.404l135.654,62.683v19.454"/>
<rect id="rect4358" x="234.863" y="47.764" fill="#A1D6FF" stroke="#000000" stroke-width="3" stroke-linecap="square" width="188.273" height="83.86"/>
<text id="text22" transform="matrix(1, 0, 0, 1, 313.789, 103.67)" font-family="'ArialMT'" font-size="48">B</text>

<path id="path6429" fill="none" stroke="#000000" stroke-width="3" d="M537.688,126.69v525.9l166.896,63.57v18.782"/>
<rect id="rect4365" x="422.862" y="47.764" fill="#A1D6FF" stroke="#000000" stroke-width="3" stroke-linecap="square" width="188.272" height="83.86"/>
<text id="text26" transform="matrix(1, 0, 0, 1, 501.789, 103.67)" font-family="'ArialMT'" font-size="48">C</text>

<rect id="rect4371" x="610.862" y="47.764" fill="#A1D6FF" stroke="#000000" stroke-width="3" stroke-linecap="square" width="188.272" height="83.86"/>
<text id="text29" transform="matrix(1, 0, 0, 1, 689.789, 103.67)" font-family="'ArialMT'" font-size="48">D</text>

<rect id="rect4396" x="46.863" y="755.141" fill="#A1D6FF" stroke="#000000" stroke-width="3" stroke-linecap="square" width="188.272" height="83.859"/>
<text id="text32" transform="matrix(1, 0, 0, 1, 125.789, 816)" font-family="'ArialMT'" font-size="48">A</text>

<rect id="rect4402" x="234.863" y="755.141" fill="#A1D6FF" stroke="#000000" stroke-width="3" stroke-linecap="square" width="188.273" height="83.859"/>
<text id="text35" transform="matrix(1, 0, 0, 1, 313.789, 816)" font-family="'ArialMT'" font-size="48">B</text>

<rect id="rect4408" x="422.862" y="755.141" fill="#A1D6FF" stroke="#000000" stroke-width="3" stroke-linecap="square" width="188.272" height="83.859"/>
<text id="text38" transform="matrix(1, 0, 0, 1, 501.789, 815)" font-family="'ArialMT'" font-size="48">C</text>

<rect id="rect4414" x="610.862" y="755.141" fill="#A1D6FF" stroke="#000000" stroke-width="3" stroke-linecap="square" width="188.272" height="83.859"/>
<text id="text41" transform="matrix(1, 0, 0, 1, 689.789, 816)" font-family="'ArialMT'" font-size="48">D</text>

<text id="text43" transform="matrix(1, 0, 0, 1, -0.2905, 350.627)" font-family="'ArialMT'" font-size="40">M</text>

<text id="text45" transform="matrix(1, 0, 0, 1, 5.7485, 454.979)" font-family="'ArialMT'" font-size="40">K</text>

<text id="text47" transform="matrix(1, 0, 0, 1, 35.5273, 362.254)" font-family="'ArialMT'" font-size="36">i</text>

<text id="text49" transform="matrix(1, 0, 0, 1, 35.5273, 466.606)" font-family="'ArialMT'" font-size="36">i</text>

<path id="path4244" stroke="#000000" stroke-width="4" stroke-linecap="square" d="M137.503,183.09l-6.573,12.168l-6.573-12.168  H137.503z"/>
<path id="path4442" stroke="#000000" stroke-width="4" stroke-linecap="square" d="M137.503,287.09l-6.573,12.168l-6.573-12.168  H137.503z"/>
<path id="path4446" stroke="#000000" stroke-width="4" stroke-linecap="square" d="M137.503,391.69l-6.573,12.168l-6.573-12.168  H137.503z"/>
<path id="path4450" stroke="#000000" stroke-width="4" stroke-linecap="square" d="M137.503,495.689l-6.573,12.169l-6.573-12.169  H137.503z"/>
<path id="path4456" stroke="#000000" stroke-width="4" stroke-linecap="square" d="M137.503,736.124l-6.573,12.168l-6.573-12.168  H137.503z"/>
<path id="path5446" stroke="#000000" stroke-width="4" stroke-linecap="square" d="M324.681,736.124l-6.571,12.168l-6.573-12.168  H324.681z"/>
<path id="path5451" stroke="#000000" stroke-width="4" stroke-linecap="square" d="M522.681,736.124l-6.571,12.168l-6.573-12.168  H522.681z"/>
<path id="path5454" stroke="#000000" stroke-width="4" stroke-linecap="square" d="M710.681,736.124l-6.571,12.168l-6.573-12.168  H710.681z"/>
<path id="path7400" fill="none" stroke="#000000" stroke-width="3" d="M703.762,126.69v528.3l-573.04,65.402v15.261"/>
<path id="path8378" stroke="#000000" stroke-width="4" stroke-linecap="square" d="M182.879,241.65l-12.168-6.573l12.168-6.573  V241.65z"/>
<path id="path9352" stroke="#000000" stroke-width="4" stroke-linecap="square" d="M329.668,274.262l-12.168-6.573l12.168-6.573  V274.262z"/>
<path id="path9358" stroke="#000000" stroke-width="4" stroke-linecap="square" d="M329.668,242.262l-12.168-6.573l12.168-6.573  V242.262z"/>
<path id="path9360" stroke="#000000" stroke-width="4" stroke-linecap="square" d="M329.668,210.262l-12.168-6.573l12.168-6.573  V210.262z"/>
<path id="path9362" stroke="#000000" stroke-width="4" stroke-linecap="square" d="M78.476,333.055l12.168,6.573l-12.168,6.573  V333.055z"/>
<path id="path9367" stroke="#000000" stroke-width="4" stroke-linecap="square" d="M78.476,437.055l12.168,6.573l-12.168,6.573  V437.055z"/>
<path id="path9369" fill="none" stroke="#000000" stroke-width="3" d="M47.274,339.217h34.119"/>
<path id="path10340" fill="none" stroke="#000000" stroke-width="3" d="M47.274,443.217h34.119"/>
<path id="path11317" fill="none" stroke="#000000" stroke-width="3" d="M331.66,266.622h48.833"/>
<path id="path12288" fill="none" stroke="#000000" stroke-width="3" d="M332.531,235.229h26.452  c0-21.219,21.801-20.928,21.801-20.928c22.091,0,21.51,20.347,21.51,20.347h134.873"/>
<path id="path13259" fill="none" stroke="#000000" stroke-width="3" d="M332.531,205.264h26.452  c0-21.219,21.801-20.928,21.801-20.928c22.091,0,21.51,20.347,21.51,20.347h112.491h0.29c0-20.903,21.51-21.775,21.51-21.775  c22.092,0,22.092,20.929,22.092,20.929h144.756"/>
<text id="text71" font-size="40" x="89.5" y="563.11" style="font-size: 40px; font-family: ArialMT;">&lt;&lt;&lt;</text>

<text id="text73" font-size="36" x="157.747" y="575.995" style="font-size: 36px; font-family: ArialMT;">s</text>

</svg>