<?xml version="1.0" encoding="UTF-8" standalone="no"?>
<!-- Created with Inkscape (http://www.inkscape.org/) -->
<svg xmlns:svg="http://www.w3.org/2000/svg" xmlns="http://www.w3.org/2000/svg" xmlns:xlink="http://www.w3.org/1999/xlink" version="1.0" width="836" height="590" id="svg2535">
  <defs id="defs2641"/>
  <g transform="translate(12, 16)" id="g2537">
    <g id="g1720">
      <g transform="translate(-218, -109)" id="g2933" style="fill: rgb(160, 213, 253); fill-opacity: 1;">
        <path d="M 410,111 L 410,152 M 346,152 L 346,111 M 536,152 L 536,111 M 663,152 L 663,111 M 600,111 L 600,152 M 473,152 L 473,111 M 283,152 L 283,111 M 727,152 L 219,152 L 219,111 L 727,111 L 727,152 z" id="rect2987" style="fill: rgb(160, 213, 253); fill-opacity: 1; stroke: rgb(0, 0, 0); stroke-width: 2;"/>
      </g>
      <use transform="translate(0, 496)" id="use2338" x="0" y="0" width="850" height="550" xlink:href="#g2933"/>
      <g transform="translate(-42, -158)" id="g1409">
        <use transform="matrix(1, 0, 0, 0.542548, 0, 380)" id="use2476" x="0" y="0" width="850" height="550" xlink:href="#rect2873"/>
        <use transform="translate(0, 173.91)" id="use2474" x="0" y="0" width="850" height="550" xlink:href="#rect2873"/>
        <use transform="matrix(1, 0, 0, 0.558271, 0, 199.392)" id="use2472" x="0" y="0" width="850" height="550" xlink:href="#rect2873"/>
        <g id="g4860">
          <path d="M 712,315 L 712,580 L 75,630 L 75,630 L 76,656 L 76,631 L 713,582 L 714,582 L 714,315 L 712,315 z" id="path4985" style="fill: rgb(0, 0, 0); fill-opacity: 1; fill-rule: evenodd; stroke: none; stroke-width: 1.47116; stroke-linecap: butt; stroke-linejoin: miter; stroke-miterlimit: 4; stroke-opacity: 1;"/>
          <path d="M 75,641 L 69,635 L 75,655 L 81,635 L 75,641 z" id="path4866" style="fill-rule: evenodd; stroke: rgb(0, 0, 0); stroke-width: 0.8; marker-start: none;"/>
        </g>
        <g id="g2798">
          <path d="M 789,255 L 789,278 L 790,278 L 790,255 L 789,255 z" id="path7897" style="fill: rgb(0, 0, 0); fill-opacity: 1; fill-rule: evenodd; stroke: none; stroke-width: 0.843343; stroke-linecap: butt; stroke-linejoin: miter; stroke-miterlimit: 4; stroke-opacity: 1;"/>
          <path d="M 789,269 L 786,266 L 789,278 L 793,266 L 789,269 z" id="path2804" style="fill-rule: evenodd; stroke: rgb(0, 0, 0); stroke-width: 0.8; marker-start: none;"/>
        </g>
        <g transform="matrix(0.562229, 0, 0, 0.562229, -293.08, 867.528)" id="g7915">
          <text x="2001.51" y="-1053.6" transform="scale(0.952546, 1.04982)" id="text7917" xml:space="preserve" style="font-size: 34.087px; font-style: normal; font-variant: normal; font-weight: normal; font-stretch: normal; text-anchor: start; fill: rgb(0, 0, 0); fill-opacity: 1; stroke: none; stroke-width: 1px; stroke-linecap: butt; stroke-linejoin: miter; stroke-opacity: 1; font-family: Bitstream Vera Sans;"><tspan x="2001.51" y="-1053.6" id="tspan7919">W</tspan></text>
          <text x="1937" y="-1100.44" id="text7921" xml:space="preserve" style="font-size: 20px; font-style: normal; font-weight: normal; fill: rgb(0, 0, 0); fill-opacity: 1; stroke: none; stroke-width: 1px; stroke-linecap: butt; stroke-linejoin: miter; stroke-opacity: 1; font-family: Bitstream Vera Sans;"><tspan x="1937" y="-1100.44" id="tspan7923">t</tspan></text>
        </g>
        <g transform="translate(-166.577, -21.833)" id="g3222">
          <g id="g2790">
            <path d="M 975,320 L 975,321 L 998,321 L 998,320 L 975,320 z" id="path6837" style="fill: rgb(0, 0, 0); fill-opacity: 1; fill-rule: evenodd; stroke: none; stroke-width: 0.843343; stroke-linecap: butt; stroke-linejoin: miter; stroke-miterlimit: 4; stroke-opacity: 1;"/>
            <path d="M 984,320 L 987,317 L 976,320 L 987,324 L 984,320 z" id="path2796" style="fill-rule: evenodd; stroke: rgb(0, 0, 0); stroke-width: 0.8; marker-start: none;"/>
          </g>
          <g transform="matrix(0.562229, 0, 0, 0.562229, -79.3402, 888.906)" id="g7929">
            <text x="2022.22" y="-949.463" transform="scale(0.952546, 1.04982)" id="text7899" xml:space="preserve" style="font-size: 34.087px; font-style: normal; font-variant: normal; font-weight: normal; font-stretch: normal; text-anchor: start; fill: rgb(0, 0, 0); fill-opacity: 1; stroke: none; stroke-width: 1px; stroke-linecap: butt; stroke-linejoin: miter; stroke-opacity: 1; font-family: Bitstream Vera Sans;"><tspan x="2022.22" y="-949.463" id="tspan7903">K</tspan></text>
            <text x="1950.97" y="-990.298" id="text7905" xml:space="preserve" style="font-size: 20px; font-style: normal; font-weight: normal; fill: rgb(0, 0, 0); fill-opacity: 1; stroke: none; stroke-width: 1px; stroke-linecap: butt; stroke-linejoin: miter; stroke-opacity: 1; font-family: Bitstream Vera Sans;"><tspan x="1950.97" y="-990.298" id="tspan7907">t</tspan></text>
          </g>
        </g>
        <rect width="59.112923" height="70.278694" x="596.82959" y="266.65381" id="rect2873" style="fill: rgb(0, 0, 255); fill-opacity: 0.75; fill-rule: evenodd; stroke: rgb(0, 0, 0); stroke-width: 1px; stroke-linecap: butt; stroke-linejoin: miter; stroke-opacity: 1;"/>
        <g id="g2838">
          <path d="M 330,278 L 330,279 L 593,279 L 593,278 L 330,278 z" id="path2877" style="fill: rgb(0, 0, 0); fill-opacity: 1; fill-rule: evenodd; stroke: none; stroke-width: 0.898422; stroke-linecap: butt; stroke-linejoin: miter; stroke-miterlimit: 4; stroke-opacity: 1;"/>
          <path d="M 587,279 L 583,282 L 595,279 L 583,275 L 587,279 z" id="path2844" style="fill-rule: evenodd; stroke: rgb(0, 0, 0); stroke-width: 0.8; marker-start: none;"/>
          <use transform="matrix(-1, 0, 0, 1, 882.293, 132.817)" id="use4823" x="0" y="0" width="850" height="550" xlink:href="#path2844"/>
          <use transform="translate(-1.5513e-08, 21.9212)" id="use4826" x="0" y="0" width="850" height="550" xlink:href="#path2844"/>
          <use transform="translate(-1.5513e-08, 43.8047)" id="use4828" x="0" y="0" width="850" height="550" xlink:href="#path2844"/>
          <use transform="translate(-1.5513e-08, 87.9429)" id="use4830" x="0" y="0" width="850" height="550" xlink:href="#path2844"/>
          <use transform="translate(-1.5513e-08, 199.87)" id="use4832" x="0" y="0" width="850" height="550" xlink:href="#path2844"/>
          <use transform="translate(-1.5513e-08, 177.984)" id="use4834" x="0" y="0" width="850" height="550" xlink:href="#path2844"/>
          <use transform="translate(-1.5513e-08, 221.933)" id="use4836" x="0" y="0" width="850" height="550" xlink:href="#path2844"/>
          <use transform="translate(-1.5513e-08, 266.52)" id="use4838" x="0" y="0" width="850" height="550" xlink:href="#path2844"/>
        </g>
        <path d="M 394,300 L 594,300" id="path2881" style="fill: none; fill-opacity: 0.75; fill-rule: evenodd; stroke: rgb(0, 0, 0); stroke-width: 0.906914; stroke-linecap: butt; stroke-linejoin: miter; marker-end: none; stroke-miterlimit: 4; stroke-opacity: 1;"/>
        <path d="M 457,323 L 592,322" id="path2883" style="fill: none; fill-opacity: 0.75; fill-rule: evenodd; stroke: rgb(0, 0, 0); stroke-width: 0.938156; stroke-linecap: butt; stroke-linejoin: miter; marker-end: none; stroke-miterlimit: 4; stroke-opacity: 1;"/>
        <g id="g2774">
          <path d="M 655,299 L 655,300 L 691,300 L 691,299 L 655,299 z" id="path3041" style="fill: rgb(0, 0, 0); fill-opacity: 1; fill-rule: evenodd; stroke: none; stroke-width: 0.893205; stroke-linecap: butt; stroke-linejoin: miter; stroke-miterlimit: 4; stroke-opacity: 1;"/>
          <path d="M 682,300 L 679,303 L 691,300 L 679,296 L 682,300 z" id="path2780" style="fill-rule: evenodd; stroke: rgb(0, 0, 0); stroke-width: 0.8; marker-start: none;"/>
        </g>
        <path d="M 329,367 L 595,367" id="path3193" style="fill: none; fill-opacity: 0.75; fill-rule: evenodd; stroke: rgb(0, 0, 0); stroke-width: 0.906667; stroke-linecap: butt; stroke-linejoin: miter; marker-end: none; stroke-miterlimit: 4; stroke-opacity: 1;"/>
        <g id="g2806">
          <path d="M 530,202 L 530,203 L 711,280 L 711,279 L 530,202 z" id="path3202" style="fill: rgb(0, 0, 0); fill-opacity: 1; fill-rule: evenodd; stroke: none; stroke-width: 0.605859; stroke-linecap: butt; stroke-linejoin: miter; stroke-miterlimit: 4; stroke-opacity: 1;"/>
          <path d="M 706,278 L 702,279 L 711,280 L 704,274 L 706,278 z" id="path2812" style="fill-rule: evenodd; stroke: rgb(0, 0, 0); stroke-width: 0.8; marker-start: none;"/>
        </g>
        <g id="g4840">
          <path d="M 266,201 L 266,577 L 266,577 L 266,577 L 331,655 L 332,654 L 268,577 L 267,201 L 266,201 z" id="path1431" style="fill: rgb(0, 0, 0); fill-opacity: 1; fill-rule: evenodd; stroke: none; stroke-width: 1.389; stroke-linecap: butt; stroke-linejoin: miter; stroke-miterlimit: 4; stroke-opacity: 1;"/>
          <path d="M 323,644 L 315,643 L 332,654 L 324,636 L 323,644 z" id="path4846" style="fill-rule: evenodd; stroke: rgb(0, 0, 0); stroke-width: 0.8; marker-start: none;"/>
        </g>
        <path d="M 284,429 L 284,393 L 249,393 L 249,429 L 284,429 z M 249,411 L 284,411 M 267,394 L 267,429" id="path1439" style="overflow: visible; marker: none; fill: none; fill-opacity: 1; fill-rule: nonzero; stroke: rgb(255, 0, 0); stroke-width: 1.68669; stroke-linecap: square; stroke-linejoin: miter; stroke-miterlimit: 4; stroke-dashoffset: 0pt; stroke-opacity: 1; visibility: visible; display: inline;"/>
        <path d="M 714,412 L 289,411" id="path1443" style="fill: none; fill-opacity: 0.75; fill-rule: evenodd; stroke: rgb(0, 0, 0); stroke-width: 1.12446; stroke-linecap: butt; stroke-linejoin: miter; marker-end: none; stroke-miterlimit: 4; stroke-opacity: 1;"/>
        <path d="M 74,457 L 591,457" id="path1455" style="fill: none; fill-opacity: 0.75; fill-rule: evenodd; stroke: rgb(0, 0, 0); stroke-width: 0.898422; stroke-linecap: butt; stroke-linejoin: miter; marker-end: none; stroke-miterlimit: 4; stroke-opacity: 1;"/>
        <path d="M 138,478 L 594,479" id="path1457" style="fill: none; fill-opacity: 0.75; fill-rule: evenodd; stroke: rgb(0, 0, 0); stroke-width: 0.906914; stroke-linecap: butt; stroke-linejoin: miter; marker-end: none; stroke-miterlimit: 4; stroke-opacity: 1;"/>
        <path d="M 203,501 L 593,501" id="path1459" style="fill: none; fill-opacity: 0.75; fill-rule: evenodd; stroke: rgb(0, 0, 0); stroke-width: 0.938156; stroke-linecap: butt; stroke-linejoin: miter; marker-end: none; stroke-miterlimit: 4; stroke-opacity: 1;"/>
        <path d="M 73,545 L 590,545" id="path1465" style="fill: none; fill-opacity: 0.75; fill-rule: evenodd; stroke: rgb(0, 0, 0); stroke-width: 0.906667; stroke-linecap: butt; stroke-linejoin: miter; marker-end: none; stroke-miterlimit: 4; stroke-opacity: 1;"/>
        <text x="608.612" y="308.387" id="text1469" xml:space="preserve" style="font-size: 28px; font-style: normal; font-variant: normal; font-weight: normal; font-stretch: normal; text-align: start; line-height: 125%; text-anchor: start; fill: rgb(0, 0, 0); fill-opacity: 1; stroke: none; stroke-width: 1px; stroke-linecap: butt; stroke-linejoin: miter; stroke-opacity: 1; font-family: sans;"><tspan x="608.612" y="308.387" id="tspan1471" style="font-size: 28px; font-style: normal; font-variant: normal; font-weight: normal; font-stretch: normal; text-align: start; line-height: 125%; text-anchor: start; font-family: sans;">Ch</tspan></text>
        <text x="604.287" y="485.834" id="text1473" xml:space="preserve" style="font-size: 28px; font-style: normal; font-variant: normal; font-weight: normal; font-stretch: normal; text-align: start; line-height: 125%; text-anchor: start; fill: rgb(0, 0, 0); fill-opacity: 1; stroke: none; stroke-width: 1px; stroke-linecap: butt; stroke-linejoin: miter; stroke-opacity: 1; font-family: sans;"><tspan x="604.287" y="485.834" id="tspan1475" style="font-size: 28px; font-style: normal; font-variant: normal; font-weight: normal; font-stretch: normal; text-align: start; line-height: 125%; text-anchor: start; font-family: sans;">Ma</tspan></text>
        <text x="612.989" y="377.527" id="text1477" xml:space="preserve" style="font-size: 28px; font-style: normal; font-variant: normal; font-weight: normal; font-stretch: normal; text-align: start; line-height: 125%; text-anchor: start; fill: rgb(0, 0, 0); fill-opacity: 1; stroke: none; stroke-width: 1px; stroke-linecap: butt; stroke-linejoin: miter; stroke-opacity: 1; font-family: sans;"><tspan x="612.989" y="377.527" id="tspan1479" style="font-size: 28px; font-style: normal; font-variant: normal; font-weight: normal; font-stretch: normal; text-align: start; line-height: 125%; text-anchor: start; font-family: sans;">Σ1</tspan></text>
        <text x="607.807" y="552.709" id="text1481" xml:space="preserve" style="font-size: 28px; font-style: normal; font-variant: normal; font-weight: normal; font-stretch: normal; text-align: start; line-height: 125%; text-anchor: start; fill: rgb(0, 0, 0); fill-opacity: 1; stroke: none; stroke-width: 1px; stroke-linecap: butt; stroke-linejoin: miter; stroke-opacity: 1; font-family: sans;"><tspan x="607.807" y="552.709" id="tspan1483" style="font-size: 28px; font-style: normal; font-variant: normal; font-weight: normal; font-stretch: normal; text-align: start; line-height: 125%; text-anchor: start; font-family: sans;">Σ0</tspan></text>
        <use transform="translate(445.958, -112.322)" id="use2445" x="0" y="0" width="850" height="550" xlink:href="#path1439"/>
        <use transform="translate(446.033, -42.4501)" id="use2449" x="0" y="0" width="850" height="550" xlink:href="#path1439"/>
        <use transform="translate(446.033, 63.9827)" id="use2451" x="0" y="0" width="850" height="550" xlink:href="#path1439"/>
        <use transform="translate(446.033, 132.887)" id="use2453" x="0" y="0" width="850" height="550" xlink:href="#path1439"/>
        <use transform="translate(522.936, -112.585)" id="use2455" x="0" y="0" width="850" height="550" xlink:href="#path1439"/>
        <use transform="translate(0, 69.1164)" id="use2782" x="0" y="0" width="850" height="550" xlink:href="#g2774"/>
        <use transform="translate(0, 175.37)" id="use2784" x="0" y="0" width="850" height="550" xlink:href="#g2774"/>
        <use transform="translate(0, 245.518)" id="use2786" x="0" y="0" width="850" height="550" xlink:href="#g2774"/>
        <use transform="matrix(-1, 0, 0, 1, 1424.68, 0)" id="use2788" x="0" y="0" width="850" height="550" xlink:href="#g2774"/>
        <use transform="translate(190.385)" id="use4848" x="0" y="0" width="850" height="550" xlink:href="#g4840"/>
        <use transform="translate(127.653)" id="use4850" x="0" y="0" width="850" height="550" xlink:href="#g4840"/>
        <use transform="translate(63.4615)" id="use4852" x="0" y="0" width="850" height="550" xlink:href="#g4840"/>
        <use transform="translate(-64.191)" id="use4854" x="0" y="0" width="850" height="550" xlink:href="#g4840"/>
        <use transform="translate(-128.382)" id="use4856" x="0" y="0" width="850" height="550" xlink:href="#g4840"/>
        <use transform="translate(-192.573)" id="use4858" x="0" y="0" width="850" height="550" xlink:href="#g4840"/>
      </g>
      <text x="348.674" y="26.2599" id="text2653" xml:space="preserve" style="font-size: 36px; font-style: normal; font-variant: normal; font-weight: normal; font-stretch: normal; text-align: center; line-height: 125%; text-anchor: middle; fill: rgb(0, 0, 0); fill-opacity: 1; stroke: none; stroke-width: 1px; stroke-linecap: butt; stroke-linejoin: miter; stroke-opacity: 1; font-family: sans;"><tspan x="348.674" y="26.2599" id="tspan2655"/></text>
      <g transform="translate(-2.91777, 10.2122)" id="g2669">
        <text x="33.5544" y="23.3422" id="text2633" xml:space="preserve" style="font-size: 36px; font-style: normal; font-variant: normal; font-weight: normal; font-stretch: normal; text-align: center; line-height: 125%; text-anchor: middle; fill: rgb(0, 0, 0); fill-opacity: 1; stroke: none; stroke-width: 1px; stroke-linecap: butt; stroke-linejoin: miter; stroke-opacity: 1; font-family: sans;"><tspan x="33.5544" y="23.3422" id="tspan2635">A</tspan></text>
        <text x="97.2507" y="23.3422" id="text2637" xml:space="preserve" style="font-size: 36px; font-style: normal; font-variant: normal; font-weight: normal; font-stretch: normal; text-align: center; line-height: 125%; text-anchor: middle; fill: rgb(0, 0, 0); fill-opacity: 1; stroke: none; stroke-width: 1px; stroke-linecap: butt; stroke-linejoin: miter; stroke-opacity: 1; font-family: sans;"><tspan x="97.2507" y="23.3422" id="tspan2639">B</tspan></text>
        <text x="160.806" y="22.9027" id="text2641" xml:space="preserve" style="font-size: 36px; font-style: normal; font-variant: normal; font-weight: normal; font-stretch: normal; text-align: center; line-height: 125%; text-anchor: middle; fill: rgb(0, 0, 0); fill-opacity: 1; stroke: none; stroke-width: 1px; stroke-linecap: butt; stroke-linejoin: miter; stroke-opacity: 1; font-family: sans;"><tspan x="160.806" y="22.9027" id="tspan2643">C</tspan></text>
        <text x="224.872" y="23.3422" id="text2645" xml:space="preserve" style="font-size: 36px; font-style: normal; font-variant: normal; font-weight: normal; font-stretch: normal; text-align: center; line-height: 125%; text-anchor: middle; fill: rgb(0, 0, 0); fill-opacity: 1; stroke: none; stroke-width: 1px; stroke-linecap: butt; stroke-linejoin: miter; stroke-opacity: 1; font-family: sans;"><tspan x="224.872" y="23.3422" id="tspan2647">D</tspan></text>
        <text x="287.391" y="23.3422" id="text2649" xml:space="preserve" style="font-size: 36px; font-style: normal; font-variant: normal; font-weight: normal; font-stretch: normal; text-align: center; line-height: 125%; text-anchor: middle; fill: rgb(0, 0, 0); fill-opacity: 1; stroke: none; stroke-width: 1px; stroke-linecap: butt; stroke-linejoin: miter; stroke-opacity: 1; font-family: sans;"><tspan x="287.391" y="23.3422" id="tspan2651">E</tspan></text>
        <text x="347.765" y="23.3422" id="text2657" xml:space="preserve" style="font-size: 36px; font-style: normal; font-variant: normal; font-weight: normal; font-stretch: normal; text-align: center; line-height: 125%; text-anchor: middle; fill: rgb(0, 0, 0); fill-opacity: 1; stroke: none; stroke-width: 1px; stroke-linecap: butt; stroke-linejoin: miter; stroke-opacity: 1; font-family: sans;"><tspan x="347.765" y="23.3422" id="tspan2659">F</tspan></text>
        <text x="411.443" y="22.9027" id="text2661" xml:space="preserve" style="font-size: 36px; font-style: normal; font-variant: normal; font-weight: normal; font-stretch: normal; text-align: center; line-height: 125%; text-anchor: middle; fill: rgb(0, 0, 0); fill-opacity: 1; stroke: none; stroke-width: 1px; stroke-linecap: butt; stroke-linejoin: miter; stroke-opacity: 1; font-family: sans;"><tspan x="411.443" y="22.9027" id="tspan2663">G</tspan></text>
        <text x="475.597" y="23.3422" id="text2665" xml:space="preserve" style="font-size: 36px; font-style: normal; font-variant: normal; font-weight: normal; font-stretch: normal; text-align: center; line-height: 125%; text-anchor: middle; fill: rgb(0, 0, 0); fill-opacity: 1; stroke: none; stroke-width: 1px; stroke-linecap: butt; stroke-linejoin: miter; stroke-opacity: 1; font-family: sans;"><tspan x="475.597" y="23.3422" id="tspan2667">H</tspan></text>
      </g>
      <use transform="translate(0, 498.939)" id="use2687" x="0" y="0" width="850" height="550" xlink:href="#g2669"/>
    </g>
  </g>
</svg>